G04 Layer_Physical_Order=2*
G04 Layer_Color=16711680*
%FSLAX24Y24*%
%MOIN*%
G70*
G01*
G75*
%ADD13C,0.2559*%
%ADD14R,0.0591X0.0591*%
%ADD15C,0.0591*%
%ADD16R,0.0591X0.0591*%
G36*
X1197Y20619D02*
X1147Y20607D01*
X947Y20524D01*
X761Y20411D01*
X596Y20270D01*
X455Y20105D01*
X342Y19920D01*
X259Y19719D01*
X247Y19669D01*
X197Y19675D01*
Y20669D01*
X1191D01*
X1197Y20619D01*
D02*
G37*
G36*
X13795D02*
X13746Y20607D01*
X13545Y20524D01*
X13360Y20411D01*
X13195Y20270D01*
X13054Y20105D01*
X12940Y19920D01*
X12857Y19719D01*
X12806Y19508D01*
X12793Y19341D01*
X14173D01*
Y19291D01*
X14223D01*
Y17911D01*
X14390Y17925D01*
X14601Y17975D01*
X14801Y18058D01*
X14987Y18172D01*
X15152Y18313D01*
X15293Y18478D01*
X15406Y18663D01*
X15489Y18864D01*
X15501Y18913D01*
X15551Y18907D01*
Y1959D01*
X15501Y1953D01*
X15489Y2002D01*
X15406Y2203D01*
X15293Y2388D01*
X15152Y2553D01*
X14987Y2694D01*
X14801Y2808D01*
X14601Y2891D01*
X14390Y2942D01*
X14223Y2955D01*
Y1575D01*
X14173D01*
Y1525D01*
X12793D01*
X12806Y1358D01*
X12857Y1147D01*
X12940Y947D01*
X13054Y761D01*
X13195Y596D01*
X13360Y455D01*
X13545Y342D01*
X13746Y259D01*
X13795Y247D01*
X13789Y197D01*
X1959D01*
X1953Y247D01*
X2002Y259D01*
X2203Y342D01*
X2388Y455D01*
X2553Y596D01*
X2694Y761D01*
X2808Y947D01*
X2891Y1147D01*
X2942Y1358D01*
X2955Y1525D01*
X1575D01*
Y1575D01*
X1525D01*
Y2955D01*
X1358Y2942D01*
X1147Y2891D01*
X947Y2808D01*
X761Y2694D01*
X596Y2553D01*
X455Y2388D01*
X342Y2203D01*
X259Y2002D01*
X247Y1953D01*
X197Y1959D01*
Y18907D01*
X247Y18913D01*
X259Y18864D01*
X342Y18663D01*
X455Y18478D01*
X596Y18313D01*
X761Y18172D01*
X947Y18058D01*
X1147Y17975D01*
X1358Y17925D01*
X1525Y17911D01*
Y19291D01*
X1575D01*
Y19341D01*
X2955D01*
X2942Y19508D01*
X2891Y19719D01*
X2808Y19920D01*
X2694Y20105D01*
X2553Y20270D01*
X2388Y20411D01*
X2203Y20524D01*
X2002Y20607D01*
X1953Y20619D01*
X1959Y20669D01*
X13789D01*
X13795Y20619D01*
D02*
G37*
G36*
X15551Y20630D02*
Y19675D01*
X15501Y19669D01*
X15489Y19719D01*
X15406Y19920D01*
X15293Y20105D01*
X15152Y20270D01*
X14987Y20411D01*
X14801Y20524D01*
X14601Y20607D01*
X14551Y20619D01*
X14557Y20669D01*
X15535D01*
X15551Y20630D01*
D02*
G37*
G36*
X259Y1147D02*
X342Y947D01*
X455Y761D01*
X596Y596D01*
X761Y455D01*
X947Y342D01*
X1147Y259D01*
X1197Y247D01*
X1191Y197D01*
X197D01*
Y1191D01*
X247Y1197D01*
X259Y1147D01*
D02*
G37*
G36*
X15551Y1191D02*
Y197D01*
X14557D01*
X14551Y247D01*
X14601Y259D01*
X14801Y342D01*
X14987Y455D01*
X15152Y596D01*
X15293Y761D01*
X15406Y947D01*
X15489Y1147D01*
X15501Y1197D01*
X15551Y1191D01*
D02*
G37*
%LPC*%
G36*
X9858Y5871D02*
X9516D01*
X9523Y5818D01*
X9563Y5722D01*
X9626Y5639D01*
X9709Y5576D01*
X9805Y5536D01*
X9858Y5529D01*
Y5871D01*
D02*
G37*
G36*
X10300D02*
X9958D01*
Y5529D01*
X10011Y5536D01*
X10108Y5576D01*
X10190Y5639D01*
X10254Y5722D01*
X10293Y5818D01*
X10300Y5871D01*
D02*
G37*
G36*
X10858D02*
X10516D01*
X10523Y5818D01*
X10563Y5722D01*
X10626Y5639D01*
X10709Y5576D01*
X10805Y5536D01*
X10858Y5529D01*
Y5871D01*
D02*
G37*
G36*
X6537Y6261D02*
X5746D01*
Y5471D01*
X6537D01*
Y6261D01*
D02*
G37*
G36*
X5142Y6265D02*
X5039Y6251D01*
X4942Y6211D01*
X4860Y6148D01*
X4796Y6065D01*
X4757Y5969D01*
X4743Y5866D01*
X4757Y5763D01*
X4796Y5667D01*
X4860Y5584D01*
X4942Y5521D01*
X5039Y5481D01*
X5142Y5467D01*
X5245Y5481D01*
X5341Y5521D01*
X5424Y5584D01*
X5487Y5667D01*
X5527Y5763D01*
X5540Y5866D01*
X5527Y5969D01*
X5487Y6065D01*
X5424Y6148D01*
X5341Y6211D01*
X5245Y6251D01*
X5142Y6265D01*
D02*
G37*
G36*
X9304Y5871D02*
X8958D01*
Y5526D01*
X9304D01*
Y5871D01*
D02*
G37*
G36*
X8858D02*
X8513D01*
Y5526D01*
X8858D01*
Y5871D01*
D02*
G37*
G36*
X9858Y6313D02*
X9805Y6306D01*
X9709Y6267D01*
X9626Y6203D01*
X9563Y6121D01*
X9523Y6024D01*
X9516Y5971D01*
X9858D01*
Y6313D01*
D02*
G37*
G36*
X9304Y6317D02*
X8958D01*
Y5971D01*
X9304D01*
Y6317D01*
D02*
G37*
G36*
X10858Y6313D02*
X10805Y6306D01*
X10709Y6267D01*
X10626Y6203D01*
X10563Y6121D01*
X10523Y6024D01*
X10516Y5971D01*
X10858D01*
Y6313D01*
D02*
G37*
G36*
X9958D02*
Y5971D01*
X10300D01*
X10293Y6024D01*
X10254Y6121D01*
X10190Y6203D01*
X10108Y6267D01*
X10011Y6306D01*
X9958Y6313D01*
D02*
G37*
G36*
X11858Y5871D02*
X11516D01*
X11523Y5818D01*
X11563Y5722D01*
X11626Y5639D01*
X11709Y5576D01*
X11805Y5536D01*
X11858Y5529D01*
Y5871D01*
D02*
G37*
G36*
X11300D02*
X10958D01*
Y5529D01*
X11011Y5536D01*
X11108Y5576D01*
X11190Y5639D01*
X11254Y5722D01*
X11293Y5818D01*
X11300Y5871D01*
D02*
G37*
G36*
X8858Y6317D02*
X8513D01*
Y5971D01*
X8858D01*
Y6317D01*
D02*
G37*
G36*
X12300Y5871D02*
X11958D01*
Y5529D01*
X12011Y5536D01*
X12108Y5576D01*
X12190Y5639D01*
X12254Y5722D01*
X12293Y5818D01*
X12300Y5871D01*
D02*
G37*
G36*
X6570Y2809D02*
X6228D01*
Y2467D01*
X6281Y2474D01*
X6377Y2514D01*
X6459Y2577D01*
X6523Y2660D01*
X6563Y2756D01*
X6570Y2809D01*
D02*
G37*
G36*
X6128Y3251D02*
X6074Y3244D01*
X5978Y3204D01*
X5896Y3141D01*
X5832Y3058D01*
X5792Y2962D01*
X5785Y2909D01*
X6128D01*
Y3251D01*
D02*
G37*
G36*
X6228D02*
Y2909D01*
X6570D01*
X6563Y2962D01*
X6523Y3058D01*
X6459Y3141D01*
X6377Y3204D01*
X6281Y3244D01*
X6228Y3251D01*
D02*
G37*
G36*
X6128Y2809D02*
X5785D01*
X5792Y2756D01*
X5832Y2660D01*
X5896Y2577D01*
X5978Y2514D01*
X6074Y2474D01*
X6128Y2467D01*
Y2809D01*
D02*
G37*
G36*
X14123Y2955D02*
X13957Y2942D01*
X13746Y2891D01*
X13545Y2808D01*
X13360Y2694D01*
X13195Y2553D01*
X13054Y2388D01*
X12940Y2203D01*
X12857Y2002D01*
X12806Y1791D01*
X12793Y1625D01*
X14123D01*
Y2955D01*
D02*
G37*
G36*
X1625Y2955D02*
Y1625D01*
X2955D01*
X2942Y1791D01*
X2891Y2002D01*
X2808Y2203D01*
X2694Y2388D01*
X2553Y2553D01*
X2388Y2694D01*
X2203Y2808D01*
X2002Y2891D01*
X1791Y2942D01*
X1625Y2955D01*
D02*
G37*
G36*
X5573Y3254D02*
X4782D01*
Y2464D01*
X5573D01*
Y3254D01*
D02*
G37*
G36*
X9908Y4320D02*
X9805Y4306D01*
X9709Y4267D01*
X9626Y4203D01*
X9563Y4121D01*
X9523Y4024D01*
X9510Y3921D01*
X9523Y3818D01*
X9563Y3722D01*
X9626Y3639D01*
X9709Y3576D01*
X9805Y3536D01*
X9908Y3523D01*
X10011Y3536D01*
X10108Y3576D01*
X10190Y3639D01*
X10254Y3722D01*
X10293Y3818D01*
X10307Y3921D01*
X10293Y4024D01*
X10254Y4121D01*
X10190Y4203D01*
X10108Y4267D01*
X10011Y4306D01*
X9908Y4320D01*
D02*
G37*
G36*
X10908Y5320D02*
X10805Y5306D01*
X10709Y5267D01*
X10626Y5203D01*
X10563Y5121D01*
X10523Y5024D01*
X10510Y4921D01*
X10523Y4818D01*
X10563Y4722D01*
X10626Y4639D01*
X10709Y4576D01*
X10805Y4536D01*
X10908Y4523D01*
X11011Y4536D01*
X11108Y4576D01*
X11190Y4639D01*
X11254Y4722D01*
X11293Y4818D01*
X11307Y4921D01*
X11293Y5024D01*
X11254Y5121D01*
X11190Y5203D01*
X11108Y5267D01*
X11011Y5306D01*
X10908Y5320D01*
D02*
G37*
G36*
X11908D02*
X11805Y5306D01*
X11709Y5267D01*
X11626Y5203D01*
X11563Y5121D01*
X11523Y5024D01*
X11510Y4921D01*
X11523Y4818D01*
X11563Y4722D01*
X11626Y4639D01*
X11709Y4576D01*
X11805Y4536D01*
X11908Y4523D01*
X12011Y4536D01*
X12108Y4576D01*
X12190Y4639D01*
X12254Y4722D01*
X12293Y4818D01*
X12307Y4921D01*
X12293Y5024D01*
X12254Y5121D01*
X12190Y5203D01*
X12108Y5267D01*
X12011Y5306D01*
X11908Y5320D01*
D02*
G37*
G36*
X9304Y5317D02*
X8513D01*
Y4526D01*
X9304D01*
Y5317D01*
D02*
G37*
G36*
X9908Y5320D02*
X9805Y5306D01*
X9709Y5267D01*
X9626Y5203D01*
X9563Y5121D01*
X9523Y5024D01*
X9510Y4921D01*
X9523Y4818D01*
X9563Y4722D01*
X9626Y4639D01*
X9709Y4576D01*
X9805Y4536D01*
X9908Y4523D01*
X10011Y4536D01*
X10108Y4576D01*
X10190Y4639D01*
X10254Y4722D01*
X10293Y4818D01*
X10307Y4921D01*
X10293Y5024D01*
X10254Y5121D01*
X10190Y5203D01*
X10108Y5267D01*
X10011Y5306D01*
X9908Y5320D01*
D02*
G37*
G36*
X10908Y4320D02*
X10805Y4306D01*
X10709Y4267D01*
X10626Y4203D01*
X10563Y4121D01*
X10523Y4024D01*
X10510Y3921D01*
X10523Y3818D01*
X10563Y3722D01*
X10626Y3639D01*
X10709Y3576D01*
X10805Y3536D01*
X10908Y3523D01*
X11011Y3536D01*
X11108Y3576D01*
X11190Y3639D01*
X11254Y3722D01*
X11293Y3818D01*
X11307Y3921D01*
X11293Y4024D01*
X11254Y4121D01*
X11190Y4203D01*
X11108Y4267D01*
X11011Y4306D01*
X10908Y4320D01*
D02*
G37*
G36*
X11908D02*
X11805Y4306D01*
X11709Y4267D01*
X11626Y4203D01*
X11563Y4121D01*
X11523Y4024D01*
X11510Y3921D01*
X11523Y3818D01*
X11563Y3722D01*
X11626Y3639D01*
X11709Y3576D01*
X11805Y3536D01*
X11908Y3523D01*
X12011Y3536D01*
X12108Y3576D01*
X12190Y3639D01*
X12254Y3722D01*
X12293Y3818D01*
X12307Y3921D01*
X12293Y4024D01*
X12254Y4121D01*
X12190Y4203D01*
X12108Y4267D01*
X12011Y4306D01*
X11908Y4320D01*
D02*
G37*
G36*
X9304Y4317D02*
X8513D01*
Y3526D01*
X9304D01*
Y4317D01*
D02*
G37*
G36*
X10958Y6313D02*
Y5971D01*
X11300D01*
X11293Y6024D01*
X11254Y6121D01*
X11190Y6203D01*
X11108Y6267D01*
X11011Y6306D01*
X10958Y6313D01*
D02*
G37*
G36*
X14123Y19241D02*
X12793D01*
X12806Y19075D01*
X12857Y18864D01*
X12940Y18663D01*
X13054Y18478D01*
X13195Y18313D01*
X13360Y18172D01*
X13545Y18058D01*
X13746Y17975D01*
X13957Y17925D01*
X14123Y17911D01*
Y19241D01*
D02*
G37*
G36*
X13387Y15387D02*
X12597D01*
Y14597D01*
X13387D01*
Y15387D01*
D02*
G37*
G36*
X6374Y20134D02*
X6271Y20120D01*
X6175Y20080D01*
X6093Y20017D01*
X6029Y19934D01*
X5989Y19838D01*
X5976Y19735D01*
X5989Y19632D01*
X6029Y19536D01*
X6093Y19453D01*
X6175Y19390D01*
X6271Y19350D01*
X6374Y19336D01*
X6478Y19350D01*
X6574Y19390D01*
X6656Y19453D01*
X6720Y19536D01*
X6760Y19632D01*
X6773Y19735D01*
X6760Y19838D01*
X6720Y19934D01*
X6656Y20017D01*
X6574Y20080D01*
X6478Y20120D01*
X6374Y20134D01*
D02*
G37*
G36*
X2955Y19241D02*
X1625D01*
Y17911D01*
X1791Y17925D01*
X2002Y17975D01*
X2203Y18058D01*
X2388Y18172D01*
X2553Y18313D01*
X2694Y18478D01*
X2808Y18663D01*
X2891Y18864D01*
X2942Y19075D01*
X2955Y19241D01*
D02*
G37*
G36*
X2657Y14391D02*
X2554Y14377D01*
X2458Y14337D01*
X2376Y14274D01*
X2312Y14191D01*
X2272Y14095D01*
X2259Y13992D01*
X2272Y13889D01*
X2312Y13793D01*
X2376Y13710D01*
X2458Y13647D01*
X2554Y13607D01*
X2657Y13593D01*
X2761Y13607D01*
X2857Y13647D01*
X2939Y13710D01*
X3003Y13793D01*
X3043Y13889D01*
X3056Y13992D01*
X3043Y14095D01*
X3003Y14191D01*
X2939Y14274D01*
X2857Y14337D01*
X2761Y14377D01*
X2657Y14391D01*
D02*
G37*
G36*
X12992Y13391D02*
X12889Y13377D01*
X12793Y13337D01*
X12710Y13274D01*
X12647Y13191D01*
X12607Y13095D01*
X12593Y12992D01*
X12607Y12889D01*
X12647Y12793D01*
X12710Y12710D01*
X12793Y12647D01*
X12889Y12607D01*
X12992Y12593D01*
X13095Y12607D01*
X13191Y12647D01*
X13274Y12710D01*
X13337Y12793D01*
X13377Y12889D01*
X13391Y12992D01*
X13377Y13095D01*
X13337Y13191D01*
X13274Y13274D01*
X13191Y13337D01*
X13095Y13377D01*
X12992Y13391D01*
D02*
G37*
G36*
X3053Y15387D02*
X2262D01*
Y14597D01*
X3053D01*
Y15387D01*
D02*
G37*
G36*
X12992Y14391D02*
X12889Y14377D01*
X12793Y14337D01*
X12710Y14274D01*
X12647Y14191D01*
X12607Y14095D01*
X12593Y13992D01*
X12607Y13889D01*
X12647Y13793D01*
X12710Y13710D01*
X12793Y13647D01*
X12889Y13607D01*
X12992Y13593D01*
X13095Y13607D01*
X13191Y13647D01*
X13274Y13710D01*
X13337Y13793D01*
X13377Y13889D01*
X13391Y13992D01*
X13377Y14095D01*
X13337Y14191D01*
X13274Y14274D01*
X13191Y14337D01*
X13095Y14377D01*
X12992Y14391D01*
D02*
G37*
G36*
X10767Y19685D02*
X10424D01*
Y19343D01*
X10478Y19350D01*
X10574Y19390D01*
X10656Y19453D01*
X10720Y19536D01*
X10760Y19632D01*
X10767Y19685D01*
D02*
G37*
G36*
X10324D02*
X9982D01*
X9989Y19632D01*
X10029Y19536D01*
X10093Y19453D01*
X10175Y19390D01*
X10271Y19350D01*
X10324Y19343D01*
Y19685D01*
D02*
G37*
G36*
X10424Y20127D02*
Y19785D01*
X10767D01*
X10760Y19838D01*
X10720Y19934D01*
X10656Y20017D01*
X10574Y20080D01*
X10478Y20120D01*
X10424Y20127D01*
D02*
G37*
G36*
X10324D02*
X10271Y20120D01*
X10175Y20080D01*
X10093Y20017D01*
X10029Y19934D01*
X9989Y19838D01*
X9982Y19785D01*
X10324D01*
Y20127D01*
D02*
G37*
G36*
X8374Y20134D02*
X8271Y20120D01*
X8175Y20080D01*
X8092Y20017D01*
X8029Y19934D01*
X7989Y19838D01*
X7976Y19735D01*
X7989Y19632D01*
X8029Y19536D01*
X8092Y19453D01*
X8175Y19390D01*
X8271Y19350D01*
X8374Y19336D01*
X8478Y19350D01*
X8574Y19390D01*
X8656Y19453D01*
X8720Y19536D01*
X8760Y19632D01*
X8773Y19735D01*
X8760Y19838D01*
X8720Y19934D01*
X8656Y20017D01*
X8574Y20080D01*
X8478Y20120D01*
X8374Y20134D01*
D02*
G37*
G36*
X7374D02*
X7271Y20120D01*
X7175Y20080D01*
X7092Y20017D01*
X7029Y19934D01*
X6989Y19838D01*
X6976Y19735D01*
X6989Y19632D01*
X7029Y19536D01*
X7092Y19453D01*
X7175Y19390D01*
X7271Y19350D01*
X7374Y19336D01*
X7478Y19350D01*
X7574Y19390D01*
X7656Y19453D01*
X7720Y19536D01*
X7760Y19632D01*
X7773Y19735D01*
X7760Y19838D01*
X7720Y19934D01*
X7656Y20017D01*
X7574Y20080D01*
X7478Y20120D01*
X7374Y20134D01*
D02*
G37*
G36*
X5770Y20130D02*
X4979D01*
Y19340D01*
X5770D01*
Y20130D01*
D02*
G37*
G36*
X9374Y20134D02*
X9271Y20120D01*
X9175Y20080D01*
X9093Y20017D01*
X9029Y19934D01*
X8989Y19838D01*
X8976Y19735D01*
X8989Y19632D01*
X9029Y19536D01*
X9093Y19453D01*
X9175Y19390D01*
X9271Y19350D01*
X9374Y19336D01*
X9478Y19350D01*
X9574Y19390D01*
X9656Y19453D01*
X9720Y19536D01*
X9760Y19632D01*
X9773Y19735D01*
X9760Y19838D01*
X9720Y19934D01*
X9656Y20017D01*
X9574Y20080D01*
X9478Y20120D01*
X9374Y20134D01*
D02*
G37*
G36*
X12942Y8384D02*
X12889Y8377D01*
X12793Y8337D01*
X12710Y8274D01*
X12647Y8191D01*
X12607Y8095D01*
X12600Y8042D01*
X12942D01*
Y8384D01*
D02*
G37*
G36*
X13384Y7942D02*
X13042D01*
Y7600D01*
X13095Y7607D01*
X13191Y7647D01*
X13274Y7710D01*
X13337Y7793D01*
X13377Y7889D01*
X13384Y7942D01*
D02*
G37*
G36*
X2657Y9391D02*
X2554Y9377D01*
X2458Y9337D01*
X2376Y9274D01*
X2312Y9191D01*
X2272Y9095D01*
X2259Y8992D01*
X2272Y8889D01*
X2312Y8793D01*
X2376Y8710D01*
X2458Y8647D01*
X2554Y8607D01*
X2657Y8593D01*
X2761Y8607D01*
X2857Y8647D01*
X2939Y8710D01*
X3003Y8793D01*
X3043Y8889D01*
X3056Y8992D01*
X3043Y9095D01*
X3003Y9191D01*
X2939Y9274D01*
X2857Y9337D01*
X2761Y9377D01*
X2657Y9391D01*
D02*
G37*
G36*
X13042Y8384D02*
Y8042D01*
X13384D01*
X13377Y8095D01*
X13337Y8191D01*
X13274Y8274D01*
X13191Y8337D01*
X13095Y8377D01*
X13042Y8384D01*
D02*
G37*
G36*
X11958Y6313D02*
Y5971D01*
X12300D01*
X12293Y6024D01*
X12254Y6121D01*
X12190Y6203D01*
X12108Y6267D01*
X12011Y6306D01*
X11958Y6313D01*
D02*
G37*
G36*
X11858D02*
X11805Y6306D01*
X11709Y6267D01*
X11626Y6203D01*
X11563Y6121D01*
X11523Y6024D01*
X11516Y5971D01*
X11858D01*
Y6313D01*
D02*
G37*
G36*
X12942Y7942D02*
X12600D01*
X12607Y7889D01*
X12647Y7793D01*
X12710Y7710D01*
X12793Y7647D01*
X12889Y7607D01*
X12942Y7600D01*
Y7942D01*
D02*
G37*
G36*
X2657Y8391D02*
X2554Y8377D01*
X2458Y8337D01*
X2376Y8274D01*
X2312Y8191D01*
X2272Y8095D01*
X2259Y7992D01*
X2272Y7889D01*
X2312Y7793D01*
X2376Y7710D01*
X2458Y7647D01*
X2554Y7607D01*
X2657Y7593D01*
X2761Y7607D01*
X2857Y7647D01*
X2939Y7710D01*
X3003Y7793D01*
X3043Y7889D01*
X3056Y7992D01*
X3043Y8095D01*
X3003Y8191D01*
X2939Y8274D01*
X2857Y8337D01*
X2761Y8377D01*
X2657Y8391D01*
D02*
G37*
G36*
Y12391D02*
X2554Y12377D01*
X2458Y12337D01*
X2376Y12274D01*
X2312Y12191D01*
X2272Y12095D01*
X2259Y11992D01*
X2272Y11889D01*
X2312Y11793D01*
X2376Y11710D01*
X2458Y11647D01*
X2554Y11607D01*
X2657Y11593D01*
X2761Y11607D01*
X2857Y11647D01*
X2939Y11710D01*
X3003Y11793D01*
X3043Y11889D01*
X3056Y11992D01*
X3043Y12095D01*
X3003Y12191D01*
X2939Y12274D01*
X2857Y12337D01*
X2761Y12377D01*
X2657Y12391D01*
D02*
G37*
G36*
X12992Y11391D02*
X12889Y11377D01*
X12793Y11337D01*
X12710Y11274D01*
X12647Y11191D01*
X12607Y11095D01*
X12593Y10992D01*
X12607Y10889D01*
X12647Y10793D01*
X12710Y10710D01*
X12793Y10647D01*
X12889Y10607D01*
X12992Y10593D01*
X13095Y10607D01*
X13191Y10647D01*
X13274Y10710D01*
X13337Y10793D01*
X13377Y10889D01*
X13391Y10992D01*
X13377Y11095D01*
X13337Y11191D01*
X13274Y11274D01*
X13191Y11337D01*
X13095Y11377D01*
X12992Y11391D01*
D02*
G37*
G36*
X2657Y13391D02*
X2554Y13377D01*
X2458Y13337D01*
X2376Y13274D01*
X2312Y13191D01*
X2272Y13095D01*
X2259Y12992D01*
X2272Y12889D01*
X2312Y12793D01*
X2376Y12710D01*
X2458Y12647D01*
X2554Y12607D01*
X2657Y12593D01*
X2761Y12607D01*
X2857Y12647D01*
X2939Y12710D01*
X3003Y12793D01*
X3043Y12889D01*
X3056Y12992D01*
X3043Y13095D01*
X3003Y13191D01*
X2939Y13274D01*
X2857Y13337D01*
X2761Y13377D01*
X2657Y13391D01*
D02*
G37*
G36*
X12992Y12391D02*
X12889Y12377D01*
X12793Y12337D01*
X12710Y12274D01*
X12647Y12191D01*
X12607Y12095D01*
X12593Y11992D01*
X12607Y11889D01*
X12647Y11793D01*
X12710Y11710D01*
X12793Y11647D01*
X12889Y11607D01*
X12992Y11593D01*
X13095Y11607D01*
X13191Y11647D01*
X13274Y11710D01*
X13337Y11793D01*
X13377Y11889D01*
X13391Y11992D01*
X13377Y12095D01*
X13337Y12191D01*
X13274Y12274D01*
X13191Y12337D01*
X13095Y12377D01*
X12992Y12391D01*
D02*
G37*
G36*
X2657Y10391D02*
X2554Y10377D01*
X2458Y10337D01*
X2376Y10274D01*
X2312Y10191D01*
X2272Y10095D01*
X2259Y9992D01*
X2272Y9889D01*
X2312Y9793D01*
X2376Y9710D01*
X2458Y9647D01*
X2554Y9607D01*
X2657Y9593D01*
X2761Y9607D01*
X2857Y9647D01*
X2939Y9710D01*
X3003Y9793D01*
X3043Y9889D01*
X3056Y9992D01*
X3043Y10095D01*
X3003Y10191D01*
X2939Y10274D01*
X2857Y10337D01*
X2761Y10377D01*
X2657Y10391D01*
D02*
G37*
G36*
X12992Y9391D02*
X12889Y9377D01*
X12793Y9337D01*
X12710Y9274D01*
X12647Y9191D01*
X12607Y9095D01*
X12593Y8992D01*
X12607Y8889D01*
X12647Y8793D01*
X12710Y8710D01*
X12793Y8647D01*
X12889Y8607D01*
X12992Y8593D01*
X13095Y8607D01*
X13191Y8647D01*
X13274Y8710D01*
X13337Y8793D01*
X13377Y8889D01*
X13391Y8992D01*
X13377Y9095D01*
X13337Y9191D01*
X13274Y9274D01*
X13191Y9337D01*
X13095Y9377D01*
X12992Y9391D01*
D02*
G37*
G36*
X2657Y11391D02*
X2554Y11377D01*
X2458Y11337D01*
X2376Y11274D01*
X2312Y11191D01*
X2272Y11095D01*
X2259Y10992D01*
X2272Y10889D01*
X2312Y10793D01*
X2376Y10710D01*
X2458Y10647D01*
X2554Y10607D01*
X2657Y10593D01*
X2761Y10607D01*
X2857Y10647D01*
X2939Y10710D01*
X3003Y10793D01*
X3043Y10889D01*
X3056Y10992D01*
X3043Y11095D01*
X3003Y11191D01*
X2939Y11274D01*
X2857Y11337D01*
X2761Y11377D01*
X2657Y11391D01*
D02*
G37*
G36*
X12992Y10391D02*
X12889Y10377D01*
X12793Y10337D01*
X12710Y10274D01*
X12647Y10191D01*
X12607Y10095D01*
X12593Y9992D01*
X12607Y9889D01*
X12647Y9793D01*
X12710Y9710D01*
X12793Y9647D01*
X12889Y9607D01*
X12992Y9593D01*
X13095Y9607D01*
X13191Y9647D01*
X13274Y9710D01*
X13337Y9793D01*
X13377Y9889D01*
X13391Y9992D01*
X13377Y10095D01*
X13337Y10191D01*
X13274Y10274D01*
X13191Y10337D01*
X13095Y10377D01*
X12992Y10391D01*
D02*
G37*
%LPD*%
D13*
X1575Y1575D02*
D03*
X14173Y1575D02*
D03*
X1575Y19291D02*
D03*
X14173Y19291D02*
D03*
D14*
X5178Y2859D02*
D03*
X6142Y5866D02*
D03*
X5374Y19735D02*
D03*
X8908Y3921D02*
D03*
Y4921D02*
D03*
Y5921D02*
D03*
D15*
X6178Y2859D02*
D03*
X5142Y5866D02*
D03*
X6374Y19735D02*
D03*
X7374D02*
D03*
X8374D02*
D03*
X9374D02*
D03*
X10374D02*
D03*
X11908Y3921D02*
D03*
X10908D02*
D03*
X9908D02*
D03*
X11908Y4921D02*
D03*
X10908D02*
D03*
X9908D02*
D03*
X11908Y5921D02*
D03*
X10908D02*
D03*
X9908D02*
D03*
X12992Y13992D02*
D03*
Y12992D02*
D03*
Y11992D02*
D03*
Y10992D02*
D03*
Y9992D02*
D03*
Y8992D02*
D03*
Y7992D02*
D03*
X2657Y13992D02*
D03*
Y12992D02*
D03*
Y11992D02*
D03*
Y10992D02*
D03*
Y9992D02*
D03*
Y8992D02*
D03*
Y7992D02*
D03*
D16*
X12992Y14992D02*
D03*
X2657D02*
D03*
M02*
