G04 Layer_Physical_Order=1*
G04 Layer_Color=255*
%FSLAX24Y24*%
%MOIN*%
G70*
G01*
G75*
%ADD10O,0.0984X0.0472*%
%ADD11R,0.0984X0.0472*%
%ADD12C,0.0120*%
%ADD13C,0.2559*%
%ADD14R,0.0591X0.0591*%
%ADD15C,0.0591*%
%ADD16R,0.0591X0.0591*%
G36*
X15551Y19675D02*
X15501Y19669D01*
X15489Y19719D01*
X15406Y19920D01*
X15293Y20105D01*
X15152Y20270D01*
X14987Y20411D01*
X14801Y20524D01*
X14601Y20607D01*
X14551Y20619D01*
X14557Y20669D01*
X15551D01*
Y19675D01*
D02*
G37*
G36*
X1197Y20619D02*
X1147Y20607D01*
X947Y20524D01*
X761Y20411D01*
X596Y20270D01*
X455Y20105D01*
X342Y19920D01*
X259Y19719D01*
X247Y19669D01*
X197Y19675D01*
Y20669D01*
X1191D01*
X1197Y20619D01*
D02*
G37*
G36*
X13795D02*
X13746Y20607D01*
X13545Y20524D01*
X13360Y20411D01*
X13195Y20270D01*
X13054Y20105D01*
X12940Y19920D01*
X12857Y19719D01*
X12806Y19508D01*
X12793Y19341D01*
X14173D01*
Y19291D01*
X14223D01*
Y17911D01*
X14390Y17925D01*
X14601Y17975D01*
X14801Y18058D01*
X14987Y18172D01*
X15152Y18313D01*
X15293Y18478D01*
X15406Y18663D01*
X15489Y18864D01*
X15501Y18913D01*
X15551Y18907D01*
Y1959D01*
X15501Y1953D01*
X15489Y2002D01*
X15406Y2203D01*
X15293Y2388D01*
X15152Y2553D01*
X14987Y2694D01*
X14801Y2808D01*
X14601Y2891D01*
X14390Y2942D01*
X14223Y2955D01*
Y1575D01*
X14173D01*
Y1525D01*
X12793D01*
X12806Y1358D01*
X12857Y1147D01*
X12940Y947D01*
X13054Y761D01*
X13195Y596D01*
X13360Y455D01*
X13545Y342D01*
X13746Y259D01*
X13795Y247D01*
X13789Y197D01*
X1959D01*
X1953Y247D01*
X2002Y259D01*
X2203Y342D01*
X2388Y455D01*
X2553Y596D01*
X2694Y761D01*
X2808Y947D01*
X2891Y1147D01*
X2942Y1358D01*
X2955Y1525D01*
X1575D01*
Y1575D01*
X1525D01*
Y2955D01*
X1358Y2942D01*
X1147Y2891D01*
X947Y2808D01*
X761Y2694D01*
X596Y2553D01*
X455Y2388D01*
X342Y2203D01*
X259Y2002D01*
X247Y1953D01*
X197Y1959D01*
Y18907D01*
X247Y18913D01*
X259Y18864D01*
X342Y18663D01*
X455Y18478D01*
X596Y18313D01*
X761Y18172D01*
X947Y18058D01*
X1147Y17975D01*
X1358Y17925D01*
X1525Y17911D01*
Y19291D01*
X1575D01*
Y19341D01*
X2955D01*
X2942Y19508D01*
X2891Y19719D01*
X2808Y19920D01*
X2694Y20105D01*
X2553Y20270D01*
X2388Y20411D01*
X2203Y20524D01*
X2002Y20607D01*
X1953Y20619D01*
X1959Y20669D01*
X13789D01*
X13795Y20619D01*
D02*
G37*
G36*
X15551Y1191D02*
Y197D01*
X14557D01*
X14551Y247D01*
X14601Y259D01*
X14801Y342D01*
X14987Y455D01*
X15152Y596D01*
X15293Y761D01*
X15406Y947D01*
X15489Y1147D01*
X15501Y1197D01*
X15551Y1191D01*
D02*
G37*
G36*
X259Y1147D02*
X342Y947D01*
X455Y761D01*
X596Y596D01*
X761Y455D01*
X947Y342D01*
X1147Y259D01*
X1197Y247D01*
X1191Y197D01*
X197D01*
Y1191D01*
X247Y1197D01*
X259Y1147D01*
D02*
G37*
%LPC*%
G36*
X9304Y6317D02*
X8958D01*
Y5971D01*
X9304D01*
Y6317D01*
D02*
G37*
G36*
X9858Y6313D02*
X9805Y6306D01*
X9709Y6267D01*
X9626Y6203D01*
X9563Y6121D01*
X9523Y6024D01*
X9516Y5971D01*
X9858D01*
Y6313D01*
D02*
G37*
G36*
X10858Y5871D02*
X10516D01*
X10523Y5818D01*
X10563Y5722D01*
X10626Y5639D01*
X10709Y5576D01*
X10805Y5536D01*
X10858Y5529D01*
Y5871D01*
D02*
G37*
G36*
X11300D02*
X10958D01*
Y5529D01*
X11011Y5536D01*
X11108Y5576D01*
X11190Y5639D01*
X11254Y5722D01*
X11293Y5818D01*
X11300Y5871D01*
D02*
G37*
G36*
X8858Y6317D02*
X8513D01*
Y5971D01*
X8858D01*
Y6317D01*
D02*
G37*
G36*
X9958Y6313D02*
Y5971D01*
X10300D01*
X10293Y6024D01*
X10254Y6121D01*
X10190Y6203D01*
X10108Y6267D01*
X10011Y6306D01*
X9958Y6313D01*
D02*
G37*
G36*
X11958D02*
Y5971D01*
X12300D01*
X12293Y6024D01*
X12254Y6121D01*
X12190Y6203D01*
X12108Y6267D01*
X12011Y6306D01*
X11958Y6313D01*
D02*
G37*
G36*
X12942Y7942D02*
X12600D01*
X12607Y7889D01*
X12647Y7793D01*
X12710Y7710D01*
X12793Y7647D01*
X12889Y7607D01*
X12942Y7600D01*
Y7942D01*
D02*
G37*
G36*
X11858Y6313D02*
X11805Y6306D01*
X11709Y6267D01*
X11626Y6203D01*
X11563Y6121D01*
X11523Y6024D01*
X11516Y5971D01*
X11858D01*
Y6313D01*
D02*
G37*
G36*
X10858D02*
X10805Y6306D01*
X10709Y6267D01*
X10626Y6203D01*
X10563Y6121D01*
X10523Y6024D01*
X10516Y5971D01*
X10858D01*
Y6313D01*
D02*
G37*
G36*
X10958D02*
Y5971D01*
X11300D01*
X11293Y6024D01*
X11254Y6121D01*
X11190Y6203D01*
X11108Y6267D01*
X11011Y6306D01*
X10958Y6313D01*
D02*
G37*
G36*
X6570Y2809D02*
X6228D01*
Y2467D01*
X6281Y2474D01*
X6377Y2514D01*
X6459Y2577D01*
X6523Y2660D01*
X6563Y2756D01*
X6570Y2809D01*
D02*
G37*
G36*
X6128Y3251D02*
X6074Y3244D01*
X5978Y3204D01*
X5896Y3141D01*
X5832Y3058D01*
X5792Y2962D01*
X5785Y2909D01*
X6128D01*
Y3251D01*
D02*
G37*
G36*
Y2809D02*
X5785D01*
X5792Y2756D01*
X5832Y2660D01*
X5896Y2577D01*
X5978Y2514D01*
X6074Y2474D01*
X6128Y2467D01*
Y2809D01*
D02*
G37*
G36*
X14123Y2955D02*
X13957Y2942D01*
X13746Y2891D01*
X13545Y2808D01*
X13360Y2694D01*
X13195Y2553D01*
X13054Y2388D01*
X12940Y2203D01*
X12857Y2002D01*
X12806Y1791D01*
X12793Y1625D01*
X14123D01*
Y2955D01*
D02*
G37*
G36*
X1625Y2955D02*
Y1625D01*
X2955D01*
X2942Y1791D01*
X2891Y2002D01*
X2808Y2203D01*
X2694Y2388D01*
X2553Y2553D01*
X2388Y2694D01*
X2203Y2808D01*
X2002Y2891D01*
X1791Y2942D01*
X1625Y2955D01*
D02*
G37*
G36*
X6228Y3251D02*
Y2909D01*
X6570D01*
X6563Y2962D01*
X6523Y3058D01*
X6459Y3141D01*
X6377Y3204D01*
X6281Y3244D01*
X6228Y3251D01*
D02*
G37*
G36*
X9858Y5871D02*
X9516D01*
X9523Y5818D01*
X9563Y5722D01*
X9626Y5639D01*
X9709Y5576D01*
X9805Y5536D01*
X9858Y5529D01*
Y5871D01*
D02*
G37*
G36*
X10300D02*
X9958D01*
Y5529D01*
X10011Y5536D01*
X10108Y5576D01*
X10190Y5639D01*
X10254Y5722D01*
X10293Y5818D01*
X10300Y5871D01*
D02*
G37*
G36*
X9304D02*
X8958D01*
Y5526D01*
X9304D01*
Y5871D01*
D02*
G37*
G36*
X2657Y13391D02*
X2554Y13377D01*
X2458Y13337D01*
X2376Y13274D01*
X2312Y13191D01*
X2272Y13095D01*
X2259Y12992D01*
X2272Y12889D01*
X2312Y12793D01*
X2376Y12710D01*
X2458Y12647D01*
X2554Y12607D01*
X2657Y12593D01*
X2761Y12607D01*
X2857Y12647D01*
X2939Y12710D01*
X3003Y12793D01*
X3018Y12829D01*
X3082D01*
X3330Y12581D01*
X3382Y12546D01*
X3445Y12534D01*
X4172D01*
X4175Y12527D01*
X4229Y12457D01*
X4299Y12403D01*
X4381Y12369D01*
X4469Y12358D01*
X4980D01*
X5068Y12369D01*
X5150Y12403D01*
X5220Y12457D01*
X5274Y12527D01*
X5277Y12534D01*
X5582D01*
X7475Y10641D01*
Y5669D01*
X7487Y5607D01*
X7522Y5554D01*
X8034Y5042D01*
X8087Y5007D01*
X8150Y4994D01*
X8513D01*
Y4526D01*
X9304D01*
Y5317D01*
X8693D01*
X8672Y5321D01*
X8217D01*
X7801Y5737D01*
Y10709D01*
X7789Y10771D01*
X7753Y10824D01*
X5765Y12812D01*
X5712Y12848D01*
X5650Y12860D01*
X5277D01*
X5274Y12866D01*
X5220Y12937D01*
X5150Y12991D01*
X5068Y13024D01*
X4980Y13036D01*
X4469D01*
X4381Y13024D01*
X4299Y12991D01*
X4229Y12937D01*
X4175Y12866D01*
X4172Y12860D01*
X3512D01*
X3265Y13107D01*
X3212Y13143D01*
X3150Y13155D01*
X3018D01*
X3003Y13191D01*
X2939Y13274D01*
X2857Y13337D01*
X2761Y13377D01*
X2657Y13391D01*
D02*
G37*
G36*
X8858Y5871D02*
X8513D01*
Y5526D01*
X8858D01*
Y5871D01*
D02*
G37*
G36*
X3053Y15387D02*
X2262D01*
Y14597D01*
X3053D01*
Y14829D01*
X3936D01*
X4114Y14651D01*
X4132Y14608D01*
X4132D01*
X4132Y14608D01*
Y13935D01*
X5317D01*
Y14608D01*
X4619D01*
X4119Y15107D01*
X4066Y15143D01*
X4004Y15155D01*
X3053D01*
Y15387D01*
D02*
G37*
G36*
X14123Y19241D02*
X12793D01*
X12806Y19075D01*
X12857Y18864D01*
X12940Y18663D01*
X13054Y18478D01*
X13195Y18313D01*
X13360Y18172D01*
X13545Y18058D01*
X13746Y17975D01*
X13957Y17925D01*
X14123Y17911D01*
Y19241D01*
D02*
G37*
G36*
X2955Y19241D02*
X1625D01*
Y17911D01*
X1791Y17925D01*
X2002Y17975D01*
X2203Y18058D01*
X2388Y18172D01*
X2553Y18313D01*
X2694Y18478D01*
X2808Y18663D01*
X2891Y18864D01*
X2942Y19075D01*
X2955Y19241D01*
D02*
G37*
G36*
X12992Y12391D02*
X12889Y12377D01*
X12793Y12337D01*
X12710Y12274D01*
X12647Y12191D01*
X12632Y12155D01*
X11511D01*
X11449Y12203D01*
X11367Y12237D01*
X11280Y12249D01*
X10768D01*
X10680Y12237D01*
X10598Y12203D01*
X10528Y12149D01*
X10474Y12079D01*
X10440Y11997D01*
X10429Y11909D01*
X10440Y11822D01*
X10474Y11740D01*
X10528Y11670D01*
X10598Y11616D01*
X10680Y11582D01*
X10768Y11570D01*
X11280D01*
X11367Y11582D01*
X11449Y11616D01*
X11519Y11670D01*
X11573Y11740D01*
X11607Y11822D01*
X11608Y11829D01*
X12632D01*
X12647Y11793D01*
X12710Y11710D01*
X12793Y11647D01*
X12889Y11607D01*
X12992Y11593D01*
X13095Y11607D01*
X13191Y11647D01*
X13274Y11710D01*
X13337Y11793D01*
X13377Y11889D01*
X13391Y11992D01*
X13377Y12095D01*
X13337Y12191D01*
X13274Y12274D01*
X13191Y12337D01*
X13095Y12377D01*
X12992Y12391D01*
D02*
G37*
G36*
Y13391D02*
X12889Y13377D01*
X12793Y13337D01*
X12710Y13274D01*
X12647Y13191D01*
X12628Y13145D01*
X12615Y13143D01*
X12562Y13107D01*
X12314Y12860D01*
X11576D01*
X11573Y12866D01*
X11519Y12937D01*
X11449Y12991D01*
X11367Y13024D01*
X11280Y13036D01*
X10768D01*
X10680Y13024D01*
X10598Y12991D01*
X10528Y12937D01*
X10474Y12866D01*
X10440Y12785D01*
X10429Y12697D01*
X10440Y12609D01*
X10474Y12527D01*
X10528Y12457D01*
X10598Y12403D01*
X10680Y12369D01*
X10768Y12358D01*
X11280D01*
X11367Y12369D01*
X11449Y12403D01*
X11519Y12457D01*
X11573Y12527D01*
X11576Y12534D01*
X12382D01*
X12444Y12546D01*
X12497Y12581D01*
X12647Y12731D01*
X12697Y12728D01*
X12710Y12710D01*
X12793Y12647D01*
X12889Y12607D01*
X12992Y12593D01*
X13095Y12607D01*
X13191Y12647D01*
X13274Y12710D01*
X13337Y12793D01*
X13377Y12889D01*
X13391Y12992D01*
X13377Y13095D01*
X13337Y13191D01*
X13274Y13274D01*
X13191Y13337D01*
X13095Y13377D01*
X12992Y13391D01*
D02*
G37*
G36*
X2657Y14391D02*
X2554Y14377D01*
X2458Y14337D01*
X2376Y14274D01*
X2312Y14191D01*
X2272Y14095D01*
X2259Y13992D01*
X2272Y13889D01*
X2312Y13793D01*
X2376Y13710D01*
X2458Y13647D01*
X2554Y13607D01*
X2657Y13593D01*
X2761Y13607D01*
X2857Y13647D01*
X2939Y13710D01*
X3003Y13793D01*
X3018Y13829D01*
X3263D01*
X3723Y13369D01*
X3776Y13334D01*
X3839Y13321D01*
X3839Y13321D01*
X4172D01*
X4175Y13315D01*
X4229Y13244D01*
X4299Y13191D01*
X4381Y13157D01*
X4469Y13145D01*
X4980D01*
X5068Y13157D01*
X5150Y13191D01*
X5220Y13244D01*
X5274Y13315D01*
X5308Y13396D01*
X5319Y13484D01*
X5308Y13572D01*
X5274Y13654D01*
X5220Y13724D01*
X5150Y13778D01*
X5068Y13812D01*
X4980Y13823D01*
X4469D01*
X4381Y13812D01*
X4299Y13778D01*
X4229Y13724D01*
X4175Y13654D01*
X4172Y13647D01*
X3906D01*
X3446Y14107D01*
X3393Y14143D01*
X3331Y14155D01*
X3018D01*
X3003Y14191D01*
X2939Y14274D01*
X2857Y14337D01*
X2761Y14377D01*
X2657Y14391D01*
D02*
G37*
G36*
X10324Y20127D02*
X10271Y20120D01*
X10175Y20080D01*
X10093Y20017D01*
X10029Y19934D01*
X9989Y19838D01*
X9982Y19785D01*
X10324D01*
Y20127D01*
D02*
G37*
G36*
X10424D02*
Y19785D01*
X10767D01*
X10760Y19838D01*
X10720Y19934D01*
X10656Y20017D01*
X10574Y20080D01*
X10478Y20120D01*
X10424Y20127D01*
D02*
G37*
G36*
X7480Y20596D02*
X5197D01*
X5134Y20584D01*
X5081Y20548D01*
X1459Y16926D01*
X1424Y16873D01*
X1412Y16811D01*
Y7598D01*
X1424Y7536D01*
X1459Y7483D01*
X3192Y5751D01*
X3245Y5715D01*
X3307Y5703D01*
X3307Y5703D01*
X4781D01*
X4796Y5667D01*
X4860Y5584D01*
X4942Y5521D01*
X5039Y5481D01*
X5142Y5467D01*
X5245Y5481D01*
X5341Y5521D01*
X5424Y5584D01*
X5487Y5667D01*
X5527Y5763D01*
X5540Y5866D01*
X5527Y5969D01*
X5487Y6065D01*
X5424Y6148D01*
X5341Y6211D01*
X5245Y6251D01*
X5142Y6265D01*
X5039Y6251D01*
X4942Y6211D01*
X4860Y6148D01*
X4796Y6065D01*
X4781Y6029D01*
X3375D01*
X1738Y7666D01*
Y16743D01*
X4933Y19938D01*
X4979Y19919D01*
Y19340D01*
X5770D01*
Y20130D01*
X5190D01*
X5171Y20177D01*
X5264Y20270D01*
X7413D01*
X7530Y20152D01*
X7502Y20110D01*
X7478Y20120D01*
X7374Y20134D01*
X7271Y20120D01*
X7175Y20080D01*
X7092Y20017D01*
X7029Y19934D01*
X6989Y19838D01*
X6976Y19735D01*
X6989Y19632D01*
X7029Y19536D01*
X7092Y19453D01*
X7175Y19390D01*
X7271Y19350D01*
X7374Y19336D01*
X7478Y19350D01*
X7514Y19365D01*
X10970Y15908D01*
X11023Y15873D01*
X11086Y15860D01*
X13279D01*
X13735Y15405D01*
Y14965D01*
X13434Y14664D01*
X13387Y14683D01*
Y15387D01*
X12597D01*
Y15155D01*
X11744D01*
X11744Y15155D01*
X11682Y15143D01*
X11629Y15107D01*
X11132Y14611D01*
X10915D01*
X6538Y18988D01*
Y19375D01*
X6574Y19390D01*
X6656Y19453D01*
X6720Y19536D01*
X6760Y19632D01*
X6773Y19735D01*
X6760Y19838D01*
X6720Y19934D01*
X6656Y20017D01*
X6574Y20080D01*
X6478Y20120D01*
X6374Y20134D01*
X6271Y20120D01*
X6175Y20080D01*
X6093Y20017D01*
X6029Y19934D01*
X5989Y19838D01*
X5976Y19735D01*
X5989Y19632D01*
X6029Y19536D01*
X6093Y19453D01*
X6175Y19390D01*
X6211Y19375D01*
Y18921D01*
X6224Y18858D01*
X6259Y18806D01*
X10529Y14535D01*
X10528Y14511D01*
X10474Y14441D01*
X10440Y14359D01*
X10429Y14272D01*
X10440Y14184D01*
X10474Y14102D01*
X10528Y14032D01*
X10598Y13978D01*
X10680Y13944D01*
X10768Y13933D01*
X11280D01*
X11367Y13944D01*
X11449Y13978D01*
X11519Y14032D01*
X11573Y14102D01*
X11607Y14184D01*
X11619Y14272D01*
X11607Y14359D01*
X11573Y14441D01*
X11519Y14511D01*
X11518Y14535D01*
X11812Y14829D01*
X12597D01*
Y14597D01*
X13301D01*
X13320Y14551D01*
X13132Y14362D01*
X13095Y14377D01*
X12992Y14391D01*
X12889Y14377D01*
X12793Y14337D01*
X12710Y14274D01*
X12647Y14191D01*
X12630Y14151D01*
X12591Y14143D01*
X12538Y14107D01*
X12078Y13647D01*
X11576D01*
X11573Y13654D01*
X11519Y13724D01*
X11449Y13778D01*
X11367Y13812D01*
X11280Y13823D01*
X10768D01*
X10680Y13812D01*
X10598Y13778D01*
X10528Y13724D01*
X10474Y13654D01*
X10440Y13572D01*
X10429Y13484D01*
X10440Y13396D01*
X10474Y13315D01*
X10528Y13244D01*
X10598Y13191D01*
X10680Y13157D01*
X10768Y13145D01*
X11280D01*
X11367Y13157D01*
X11449Y13191D01*
X11519Y13244D01*
X11573Y13315D01*
X11576Y13321D01*
X12146D01*
X12208Y13334D01*
X12261Y13369D01*
X12637Y13744D01*
X12686Y13741D01*
X12710Y13710D01*
X12793Y13647D01*
X12889Y13607D01*
X12992Y13593D01*
X13095Y13607D01*
X13191Y13647D01*
X13274Y13710D01*
X13337Y13793D01*
X13377Y13889D01*
X13391Y13992D01*
X13377Y14095D01*
X13362Y14132D01*
X14013Y14782D01*
X14048Y14835D01*
X14061Y14898D01*
Y15472D01*
X14048Y15535D01*
X14013Y15588D01*
X13462Y16139D01*
X13409Y16174D01*
X13346Y16187D01*
X11153D01*
X7745Y19596D01*
X7760Y19632D01*
X7773Y19735D01*
X7760Y19838D01*
X7749Y19863D01*
X7792Y19891D01*
X7980Y19703D01*
X7989Y19632D01*
X8029Y19536D01*
X8092Y19453D01*
X8175Y19390D01*
X8271Y19350D01*
X8374Y19336D01*
X8478Y19350D01*
X8574Y19390D01*
X8656Y19453D01*
X8720Y19536D01*
X8760Y19632D01*
X8773Y19735D01*
X8760Y19838D01*
X8720Y19934D01*
X8656Y20017D01*
X8574Y20080D01*
X8478Y20120D01*
X8374Y20134D01*
X8271Y20120D01*
X8175Y20080D01*
X8112Y20032D01*
X7596Y20548D01*
X7543Y20584D01*
X7480Y20596D01*
D02*
G37*
G36*
X9374Y20134D02*
X9271Y20120D01*
X9175Y20080D01*
X9093Y20017D01*
X9029Y19934D01*
X8989Y19838D01*
X8976Y19735D01*
X8989Y19632D01*
X9029Y19536D01*
X9093Y19453D01*
X9175Y19390D01*
X9271Y19350D01*
X9374Y19336D01*
X9478Y19350D01*
X9574Y19390D01*
X9656Y19453D01*
X9720Y19536D01*
X9760Y19632D01*
X9773Y19735D01*
X9760Y19838D01*
X9720Y19934D01*
X9656Y20017D01*
X9574Y20080D01*
X9478Y20120D01*
X9374Y20134D01*
D02*
G37*
G36*
X10324Y19685D02*
X9982D01*
X9989Y19632D01*
X10029Y19536D01*
X10093Y19453D01*
X10175Y19390D01*
X10271Y19350D01*
X10324Y19343D01*
Y19685D01*
D02*
G37*
G36*
X10767D02*
X10424D01*
Y19343D01*
X10478Y19350D01*
X10574Y19390D01*
X10656Y19453D01*
X10720Y19536D01*
X10760Y19632D01*
X10767Y19685D01*
D02*
G37*
G36*
X10974Y8710D02*
X10435D01*
X10440Y8672D01*
X10474Y8590D01*
X10528Y8520D01*
X10598Y8466D01*
X10680Y8432D01*
X10768Y8421D01*
X10974D01*
Y8710D01*
D02*
G37*
G36*
X11612D02*
X11074D01*
Y8421D01*
X11280D01*
X11367Y8432D01*
X11449Y8466D01*
X11519Y8520D01*
X11573Y8590D01*
X11607Y8672D01*
X11612Y8710D01*
D02*
G37*
G36*
X10974Y9099D02*
X10768D01*
X10680Y9087D01*
X10598Y9054D01*
X10528Y9000D01*
X10474Y8929D01*
X10440Y8848D01*
X10435Y8810D01*
X10974D01*
Y9099D01*
D02*
G37*
G36*
X13384Y7942D02*
X13042D01*
Y7600D01*
X13095Y7607D01*
X13191Y7647D01*
X13274Y7710D01*
X13337Y7793D01*
X13377Y7889D01*
X13384Y7942D01*
D02*
G37*
G36*
X12942Y8384D02*
X12889Y8377D01*
X12793Y8337D01*
X12710Y8274D01*
X12647Y8191D01*
X12607Y8095D01*
X12600Y8042D01*
X12942D01*
Y8384D01*
D02*
G37*
G36*
X13042D02*
Y8042D01*
X13384D01*
X13377Y8095D01*
X13337Y8191D01*
X13274Y8274D01*
X13191Y8337D01*
X13095Y8377D01*
X13042Y8384D01*
D02*
G37*
G36*
X4980Y10674D02*
X4469D01*
X4381Y10662D01*
X4299Y10628D01*
X4229Y10574D01*
X4175Y10504D01*
X4172Y10498D01*
X3287D01*
X3225Y10485D01*
X3172Y10450D01*
X2991Y10269D01*
X2941Y10272D01*
X2939Y10274D01*
X2857Y10337D01*
X2761Y10377D01*
X2657Y10391D01*
X2554Y10377D01*
X2458Y10337D01*
X2376Y10274D01*
X2312Y10191D01*
X2272Y10095D01*
X2259Y9992D01*
X2272Y9889D01*
X2312Y9793D01*
X2376Y9710D01*
X2458Y9647D01*
X2554Y9607D01*
X2657Y9593D01*
X2761Y9607D01*
X2857Y9647D01*
X2939Y9710D01*
X3003Y9793D01*
X3029Y9856D01*
X3060Y9877D01*
X3355Y10172D01*
X4172D01*
X4175Y10165D01*
X4229Y10095D01*
X4299Y10041D01*
X4381Y10007D01*
X4469Y9996D01*
X4980D01*
X5068Y10007D01*
X5150Y10041D01*
X5220Y10095D01*
X5274Y10165D01*
X5308Y10247D01*
X5319Y10335D01*
X5308Y10422D01*
X5274Y10504D01*
X5220Y10574D01*
X5150Y10628D01*
X5068Y10662D01*
X4980Y10674D01*
D02*
G37*
G36*
Y11461D02*
X4469D01*
X4381Y11450D01*
X4299Y11416D01*
X4229Y11362D01*
X4175Y11292D01*
X4141Y11210D01*
X4134Y11155D01*
X3018D01*
X3003Y11191D01*
X2939Y11274D01*
X2857Y11337D01*
X2761Y11377D01*
X2657Y11391D01*
X2554Y11377D01*
X2458Y11337D01*
X2376Y11274D01*
X2312Y11191D01*
X2272Y11095D01*
X2259Y10992D01*
X2272Y10889D01*
X2312Y10793D01*
X2376Y10710D01*
X2458Y10647D01*
X2554Y10607D01*
X2657Y10593D01*
X2761Y10607D01*
X2857Y10647D01*
X2939Y10710D01*
X3003Y10793D01*
X3018Y10829D01*
X4298D01*
X4299Y10828D01*
X4381Y10794D01*
X4469Y10783D01*
X4980D01*
X5068Y10794D01*
X5150Y10828D01*
X5220Y10882D01*
X5274Y10952D01*
X5308Y11034D01*
X5319Y11122D01*
X5308Y11210D01*
X5274Y11292D01*
X5220Y11362D01*
X5150Y11416D01*
X5068Y11450D01*
X4980Y11461D01*
D02*
G37*
G36*
X2657Y12391D02*
X2554Y12377D01*
X2458Y12337D01*
X2376Y12274D01*
X2312Y12191D01*
X2272Y12095D01*
X2259Y11992D01*
X2272Y11889D01*
X2312Y11793D01*
X2376Y11710D01*
X2458Y11647D01*
X2554Y11607D01*
X2657Y11593D01*
X2761Y11607D01*
X2857Y11647D01*
X2939Y11710D01*
X3003Y11793D01*
X3018Y11829D01*
X4140D01*
X4141Y11822D01*
X4175Y11740D01*
X4229Y11670D01*
X4299Y11616D01*
X4381Y11582D01*
X4469Y11570D01*
X4980D01*
X5068Y11582D01*
X5150Y11616D01*
X5220Y11670D01*
X5274Y11740D01*
X5308Y11822D01*
X5319Y11909D01*
X5308Y11997D01*
X5274Y12079D01*
X5220Y12149D01*
X5150Y12203D01*
X5068Y12237D01*
X4980Y12249D01*
X4469D01*
X4381Y12237D01*
X4299Y12203D01*
X4237Y12155D01*
X3018D01*
X3003Y12191D01*
X2939Y12274D01*
X2857Y12337D01*
X2761Y12377D01*
X2657Y12391D01*
D02*
G37*
G36*
X11280Y9099D02*
X11074D01*
Y8810D01*
X11612D01*
X11607Y8848D01*
X11573Y8929D01*
X11519Y9000D01*
X11449Y9054D01*
X11367Y9087D01*
X11280Y9099D01*
D02*
G37*
G36*
X4980Y9886D02*
X4469D01*
X4381Y9875D01*
X4299Y9841D01*
X4229Y9787D01*
X4175Y9717D01*
X4172Y9710D01*
X3484D01*
X3422Y9698D01*
X3369Y9663D01*
X2978Y9272D01*
X2939Y9274D01*
X2857Y9337D01*
X2761Y9377D01*
X2657Y9391D01*
X2554Y9377D01*
X2458Y9337D01*
X2376Y9274D01*
X2312Y9191D01*
X2272Y9095D01*
X2259Y8992D01*
X2272Y8889D01*
X2312Y8793D01*
X2376Y8710D01*
X2458Y8647D01*
X2554Y8607D01*
X2657Y8593D01*
X2761Y8607D01*
X2857Y8647D01*
X2939Y8710D01*
X3003Y8793D01*
X3035Y8870D01*
X3044Y8877D01*
X3552Y9384D01*
X4172D01*
X4175Y9378D01*
X4229Y9307D01*
X4299Y9254D01*
X4381Y9220D01*
X4469Y9208D01*
X4980D01*
X5068Y9220D01*
X5150Y9254D01*
X5220Y9307D01*
X5274Y9378D01*
X5308Y9459D01*
X5319Y9547D01*
X5308Y9635D01*
X5274Y9717D01*
X5220Y9787D01*
X5150Y9841D01*
X5068Y9875D01*
X4980Y9886D01*
D02*
G37*
G36*
X11280Y11461D02*
X10768D01*
X10680Y11450D01*
X10598Y11416D01*
X10528Y11362D01*
X10474Y11292D01*
X10440Y11210D01*
X10429Y11122D01*
X10440Y11034D01*
X10474Y10952D01*
X10528Y10882D01*
X10598Y10828D01*
X10680Y10794D01*
X10768Y10783D01*
X11280D01*
X11367Y10794D01*
X11449Y10828D01*
X11450Y10829D01*
X12632D01*
X12647Y10793D01*
X12710Y10710D01*
X12793Y10647D01*
X12889Y10607D01*
X12992Y10593D01*
X13095Y10607D01*
X13132Y10622D01*
X14128Y9625D01*
Y5973D01*
X12688Y4533D01*
X12129D01*
X12127Y4538D01*
X12121Y4586D01*
X12190Y4639D01*
X12254Y4722D01*
X12269Y4758D01*
X12677D01*
X12740Y4771D01*
X12793Y4806D01*
X13265Y5278D01*
X13300Y5331D01*
X13313Y5394D01*
Y6535D01*
X13300Y6598D01*
X13265Y6651D01*
X12478Y7438D01*
X12425Y7474D01*
X12362Y7486D01*
X10934D01*
X10281Y8138D01*
Y9145D01*
X10465Y9328D01*
X10514Y9325D01*
X10528Y9307D01*
X10598Y9254D01*
X10680Y9220D01*
X10768Y9208D01*
X11280D01*
X11367Y9220D01*
X11449Y9254D01*
X11519Y9307D01*
X11573Y9378D01*
X11576Y9384D01*
X11724D01*
X12231Y8877D01*
X12284Y8841D01*
X12346Y8829D01*
X12632D01*
X12647Y8793D01*
X12710Y8710D01*
X12793Y8647D01*
X12889Y8607D01*
X12992Y8593D01*
X13095Y8607D01*
X13191Y8647D01*
X13274Y8710D01*
X13337Y8793D01*
X13377Y8889D01*
X13391Y8992D01*
X13377Y9095D01*
X13337Y9191D01*
X13274Y9274D01*
X13191Y9337D01*
X13095Y9377D01*
X12992Y9391D01*
X12889Y9377D01*
X12793Y9337D01*
X12710Y9274D01*
X12647Y9191D01*
X12632Y9155D01*
X12414D01*
X11907Y9663D01*
X11854Y9698D01*
X11791Y9710D01*
X11576D01*
X11573Y9717D01*
X11519Y9787D01*
X11449Y9841D01*
X11367Y9875D01*
X11280Y9886D01*
X10768D01*
X10680Y9875D01*
X10598Y9841D01*
X10528Y9787D01*
X10474Y9717D01*
X10471Y9710D01*
X10453D01*
X10390Y9698D01*
X10337Y9663D01*
X10003Y9328D01*
X9967Y9275D01*
X9955Y9213D01*
Y8071D01*
X9967Y8008D01*
X10003Y7956D01*
X10751Y7207D01*
X10804Y7172D01*
X10866Y7160D01*
X12295D01*
X12986Y6468D01*
Y5461D01*
X12610Y5084D01*
X12269D01*
X12254Y5121D01*
X12190Y5203D01*
X12168Y5220D01*
X12185Y5270D01*
X12480D01*
X12543Y5282D01*
X12596Y5318D01*
X12832Y5554D01*
X12867Y5607D01*
X12880Y5669D01*
X12880Y5669D01*
Y6339D01*
X12867Y6401D01*
X12832Y6454D01*
X12359Y6926D01*
X12307Y6962D01*
X12244Y6974D01*
X10264D01*
X9730Y7509D01*
Y9342D01*
X10486Y10098D01*
X10528Y10095D01*
X10598Y10041D01*
X10680Y10007D01*
X10768Y9996D01*
X11280D01*
X11367Y10007D01*
X11449Y10041D01*
X11519Y10095D01*
X11573Y10165D01*
X11576Y10172D01*
X12582D01*
X12622Y10132D01*
X12607Y10095D01*
X12593Y9992D01*
X12607Y9889D01*
X12647Y9793D01*
X12710Y9710D01*
X12793Y9647D01*
X12889Y9607D01*
X12992Y9593D01*
X13095Y9607D01*
X13191Y9647D01*
X13274Y9710D01*
X13337Y9793D01*
X13377Y9889D01*
X13391Y9992D01*
X13377Y10095D01*
X13337Y10191D01*
X13274Y10274D01*
X13191Y10337D01*
X13095Y10377D01*
X12992Y10391D01*
X12889Y10377D01*
X12853Y10362D01*
X12765Y10450D01*
X12712Y10485D01*
X12650Y10498D01*
X11576D01*
X11573Y10504D01*
X11519Y10574D01*
X11449Y10628D01*
X11367Y10662D01*
X11280Y10674D01*
X10768D01*
X10680Y10662D01*
X10598Y10628D01*
X10528Y10574D01*
X10474Y10504D01*
X10469Y10493D01*
X10430Y10485D01*
X10377Y10450D01*
X9452Y9525D01*
X9416Y9472D01*
X9404Y9409D01*
Y7441D01*
X9416Y7379D01*
X9452Y7326D01*
X10081Y6696D01*
X10134Y6660D01*
X10197Y6648D01*
X12177D01*
X12553Y6271D01*
Y5737D01*
X12413Y5596D01*
X12208D01*
X12195Y5646D01*
X12254Y5722D01*
X12293Y5818D01*
X12300Y5871D01*
X11516D01*
X11523Y5818D01*
X11563Y5722D01*
X11621Y5646D01*
X11609Y5596D01*
X11420D01*
X11358Y5584D01*
X11305Y5548D01*
X11048Y5291D01*
X11011Y5306D01*
X10908Y5320D01*
X10805Y5306D01*
X10709Y5267D01*
X10626Y5203D01*
X10563Y5121D01*
X10523Y5024D01*
X10510Y4921D01*
X10523Y4818D01*
X10563Y4722D01*
X10626Y4639D01*
X10653Y4619D01*
X10641Y4565D01*
X10629Y4562D01*
X10303Y4889D01*
X10307Y4921D01*
X10293Y5024D01*
X10254Y5121D01*
X10190Y5203D01*
X10108Y5267D01*
X10011Y5306D01*
X9908Y5320D01*
X9805Y5306D01*
X9709Y5267D01*
X9626Y5203D01*
X9563Y5121D01*
X9523Y5024D01*
X9510Y4921D01*
X9523Y4818D01*
X9563Y4722D01*
X9626Y4639D01*
X9709Y4576D01*
X9805Y4536D01*
X9908Y4523D01*
X10011Y4536D01*
X10108Y4576D01*
X10134Y4596D01*
X10469Y4261D01*
X10522Y4226D01*
X10573Y4216D01*
X10590Y4186D01*
X10596Y4163D01*
X10563Y4121D01*
X10548Y4084D01*
X10269D01*
X10254Y4121D01*
X10190Y4203D01*
X10108Y4267D01*
X10011Y4306D01*
X9908Y4320D01*
X9805Y4306D01*
X9709Y4267D01*
X9626Y4203D01*
X9563Y4121D01*
X9548Y4084D01*
X9304D01*
Y4317D01*
X8513D01*
Y4084D01*
X6307D01*
X6305Y4087D01*
Y5471D01*
X6537D01*
Y6261D01*
X6305D01*
Y7343D01*
X6292Y7405D01*
X6257Y7458D01*
X5219Y8496D01*
X5220Y8520D01*
X5274Y8590D01*
X5308Y8672D01*
X5319Y8760D01*
X5308Y8848D01*
X5274Y8929D01*
X5220Y9000D01*
X5150Y9054D01*
X5068Y9087D01*
X4980Y9099D01*
X4469D01*
X4381Y9087D01*
X4299Y9054D01*
X4229Y9000D01*
X4175Y8929D01*
X4172Y8923D01*
X3524D01*
X3461Y8911D01*
X3408Y8875D01*
X2865Y8331D01*
X2857Y8337D01*
X2761Y8377D01*
X2657Y8391D01*
X2554Y8377D01*
X2458Y8337D01*
X2376Y8274D01*
X2312Y8191D01*
X2272Y8095D01*
X2259Y7992D01*
X2272Y7889D01*
X2312Y7793D01*
X2376Y7710D01*
X2458Y7647D01*
X2554Y7607D01*
X2657Y7593D01*
X2761Y7607D01*
X2857Y7647D01*
X2939Y7710D01*
X3003Y7793D01*
X3043Y7889D01*
X3056Y7992D01*
X3048Y8054D01*
X3591Y8597D01*
X4172D01*
X4175Y8590D01*
X4229Y8520D01*
X4299Y8466D01*
X4381Y8432D01*
X4469Y8421D01*
X4833D01*
X5979Y7275D01*
Y6261D01*
X5746D01*
Y5471D01*
X5979D01*
Y4019D01*
X5991Y3957D01*
X6013Y3925D01*
X5342Y3254D01*
X4782D01*
Y2464D01*
X5573D01*
Y3024D01*
X6307Y3758D01*
X8513D01*
Y3526D01*
X9304D01*
Y3758D01*
X9548D01*
X9563Y3722D01*
X9626Y3639D01*
X9709Y3576D01*
X9805Y3536D01*
X9908Y3523D01*
X10011Y3536D01*
X10108Y3576D01*
X10190Y3639D01*
X10254Y3722D01*
X10269Y3758D01*
X10548D01*
X10563Y3722D01*
X10626Y3639D01*
X10709Y3576D01*
X10805Y3536D01*
X10908Y3523D01*
X11011Y3536D01*
X11108Y3576D01*
X11190Y3639D01*
X11254Y3722D01*
X11269Y3758D01*
X11548D01*
X11563Y3722D01*
X11626Y3639D01*
X11709Y3576D01*
X11805Y3536D01*
X11908Y3523D01*
X12011Y3536D01*
X12108Y3576D01*
X12190Y3639D01*
X12254Y3722D01*
X12293Y3818D01*
X12307Y3921D01*
X12293Y4024D01*
X12254Y4121D01*
X12226Y4157D01*
X12250Y4207D01*
X12756D01*
X12818Y4219D01*
X12871Y4255D01*
X14407Y5790D01*
X14442Y5843D01*
X14454Y5906D01*
Y9693D01*
X14442Y9755D01*
X14407Y9808D01*
X13362Y10853D01*
X13377Y10889D01*
X13391Y10992D01*
X13377Y11095D01*
X13337Y11191D01*
X13274Y11274D01*
X13191Y11337D01*
X13095Y11377D01*
X12992Y11391D01*
X12889Y11377D01*
X12793Y11337D01*
X12710Y11274D01*
X12647Y11191D01*
X12632Y11155D01*
X11614D01*
X11607Y11210D01*
X11573Y11292D01*
X11519Y11362D01*
X11449Y11416D01*
X11367Y11450D01*
X11280Y11461D01*
D02*
G37*
%LPD*%
D10*
X11024Y8760D02*
D03*
Y9547D02*
D03*
Y10335D02*
D03*
Y11122D02*
D03*
Y11909D02*
D03*
Y12697D02*
D03*
Y13484D02*
D03*
Y14272D02*
D03*
X4724Y8760D02*
D03*
Y9547D02*
D03*
Y10335D02*
D03*
Y11122D02*
D03*
Y11909D02*
D03*
Y12697D02*
D03*
Y13484D02*
D03*
D11*
Y14272D02*
D03*
D12*
X10453Y9547D02*
X11024D01*
X10118Y9213D02*
X10453Y9547D01*
X10118Y8071D02*
Y9213D01*
Y8071D02*
X10866Y7323D01*
X12362D01*
X13150Y6535D01*
Y5394D02*
Y6535D01*
X12677Y4921D02*
X13150Y5394D01*
X11908Y4921D02*
X12677D01*
X9567Y7441D02*
Y9409D01*
Y7441D02*
X10197Y6811D01*
X12244D01*
X12717Y6339D01*
Y5669D02*
Y6339D01*
X1575Y16811D02*
X5197Y20433D01*
X1575Y7598D02*
Y16811D01*
Y7598D02*
X3307Y5866D01*
X5142D01*
X6142Y4019D02*
X6240Y3921D01*
X6142Y4019D02*
Y5866D01*
X4724Y8760D02*
X6142Y7343D01*
Y5866D02*
Y7343D01*
X4724Y12697D02*
X5650D01*
X7638Y10709D01*
Y5669D02*
Y10709D01*
Y5669D02*
X8150Y5157D01*
X8672D01*
X8908Y4921D01*
X12992Y10992D02*
X14291Y9693D01*
Y5906D02*
Y9693D01*
X12756Y4370D02*
X14291Y5906D01*
X12103Y4370D02*
X12756D01*
X12097Y4377D02*
X12103Y4370D01*
X10584Y4377D02*
X12097D01*
X10039Y4921D02*
X10584Y4377D01*
X9908Y4921D02*
X10039D01*
X10492Y10335D02*
X11024D01*
X9567Y9409D02*
X10492Y10335D01*
X12480Y5433D02*
X12717Y5669D01*
X11420Y5433D02*
X12480D01*
X10908Y4921D02*
X11420Y5433D01*
X5197Y20433D02*
X7480D01*
X8178Y19735D01*
X8374D01*
X12992Y13992D02*
X13898Y14898D01*
Y15472D01*
X13346Y16024D02*
X13898Y15472D01*
X11086Y16024D02*
X13346D01*
X7374Y19735D02*
X11086Y16024D01*
X6374Y18921D02*
X11024Y14272D01*
X6374Y18921D02*
Y19735D01*
X11024Y14272D02*
X11744Y14992D01*
X12992D01*
X11024Y13484D02*
X12146D01*
X12654Y13992D01*
X12992D01*
X11024Y12697D02*
X12382D01*
X12677Y12992D01*
X12992D01*
X11024Y11909D02*
X11106Y11992D01*
X12992D01*
X11024Y11122D02*
X11154Y10992D01*
X12992D01*
X11024Y10335D02*
X12650D01*
X12992Y9992D01*
X11024Y9547D02*
X11791D01*
X12346Y8992D01*
X12992D01*
X10908Y3921D02*
X11908D01*
X9908D02*
X10908D01*
X8908D02*
X9908D01*
X5178Y2859D02*
X6240Y3921D01*
X8908D01*
X3524Y8760D02*
X4724D01*
X2756Y7992D02*
X3524Y8760D01*
X2657Y7992D02*
X2756D01*
X3484Y9547D02*
X4724D01*
X2929Y8992D02*
X3484Y9547D01*
X2657Y8992D02*
X2929D01*
X3287Y10335D02*
X4724D01*
X2945Y9992D02*
X3287Y10335D01*
X2657Y9992D02*
X2945D01*
X4594Y10992D02*
X4724Y11122D01*
X2657Y10992D02*
X4594D01*
X4642Y11992D02*
X4724Y11909D01*
X2657Y11992D02*
X4642D01*
X3445Y12697D02*
X4724D01*
X3150Y12992D02*
X3445Y12697D01*
X2657Y12992D02*
X3150D01*
X3839Y13484D02*
X4724D01*
X3331Y13992D02*
X3839Y13484D01*
X2657Y13992D02*
X3331D01*
X4004Y14992D02*
X4724Y14272D01*
X2657Y14992D02*
X4004D01*
D13*
X1575Y1575D02*
D03*
X14173Y1575D02*
D03*
X1575Y19291D02*
D03*
X14173Y19291D02*
D03*
D14*
X5178Y2859D02*
D03*
X6142Y5866D02*
D03*
X5374Y19735D02*
D03*
X8908Y3921D02*
D03*
Y4921D02*
D03*
Y5921D02*
D03*
D15*
X6178Y2859D02*
D03*
X5142Y5866D02*
D03*
X6374Y19735D02*
D03*
X7374D02*
D03*
X8374D02*
D03*
X9374D02*
D03*
X10374D02*
D03*
X11908Y3921D02*
D03*
X10908D02*
D03*
X9908D02*
D03*
X11908Y4921D02*
D03*
X10908D02*
D03*
X9908D02*
D03*
X11908Y5921D02*
D03*
X10908D02*
D03*
X9908D02*
D03*
X12992Y13992D02*
D03*
Y12992D02*
D03*
Y11992D02*
D03*
Y10992D02*
D03*
Y9992D02*
D03*
Y8992D02*
D03*
Y7992D02*
D03*
X2657Y13992D02*
D03*
Y12992D02*
D03*
Y11992D02*
D03*
Y10992D02*
D03*
Y9992D02*
D03*
Y8992D02*
D03*
Y7992D02*
D03*
D16*
X12992Y14992D02*
D03*
X2657D02*
D03*
M02*
