G04 Layer_Color=8388736*
%FSLAX24Y24*%
%MOIN*%
G70*
G01*
G75*
%ADD19O,0.1064X0.0552*%
%ADD20R,0.1064X0.0552*%
%ADD21C,0.2639*%
%ADD22R,0.0671X0.0671*%
%ADD23C,0.0671*%
%ADD24R,0.0671X0.0671*%
D19*
X11024Y8760D02*
D03*
Y9547D02*
D03*
Y10335D02*
D03*
Y11122D02*
D03*
Y11909D02*
D03*
Y12697D02*
D03*
Y13484D02*
D03*
Y14272D02*
D03*
X4724Y8760D02*
D03*
Y9547D02*
D03*
Y10335D02*
D03*
Y11122D02*
D03*
Y11909D02*
D03*
Y12697D02*
D03*
Y13484D02*
D03*
D20*
Y14272D02*
D03*
D21*
X1575Y1575D02*
D03*
X14173Y1575D02*
D03*
X1575Y19291D02*
D03*
X14173Y19291D02*
D03*
D22*
X5178Y2859D02*
D03*
X6142Y5866D02*
D03*
X5374Y19735D02*
D03*
X8908Y3921D02*
D03*
Y4921D02*
D03*
Y5921D02*
D03*
D23*
X6178Y2859D02*
D03*
X5142Y5866D02*
D03*
X6374Y19735D02*
D03*
X7374D02*
D03*
X8374D02*
D03*
X9374D02*
D03*
X10374D02*
D03*
X11908Y3921D02*
D03*
X10908D02*
D03*
X9908D02*
D03*
X11908Y4921D02*
D03*
X10908D02*
D03*
X9908D02*
D03*
X11908Y5921D02*
D03*
X10908D02*
D03*
X9908D02*
D03*
X12992Y13992D02*
D03*
Y12992D02*
D03*
Y11992D02*
D03*
Y10992D02*
D03*
Y9992D02*
D03*
Y8992D02*
D03*
Y7992D02*
D03*
X2657Y13992D02*
D03*
Y12992D02*
D03*
Y11992D02*
D03*
Y10992D02*
D03*
Y9992D02*
D03*
Y8992D02*
D03*
Y7992D02*
D03*
D24*
X12992Y14992D02*
D03*
X2657D02*
D03*
M02*
