G04 Layer_Color=65535*
%FSLAX24Y24*%
%MOIN*%
G70*
G01*
G75*
%ADD17C,0.0100*%
%ADD18C,0.0079*%
G36*
X7683Y10125D02*
X7688D01*
X7695Y10124D01*
X7702Y10123D01*
X7710Y10122D01*
X7719Y10120D01*
X7729Y10118D01*
X7739Y10115D01*
X7749Y10111D01*
X7759Y10107D01*
X7769Y10102D01*
X7779Y10096D01*
X7788Y10090D01*
X7797Y10082D01*
X7798Y10081D01*
X7799Y10080D01*
X7802Y10077D01*
X7805Y10074D01*
X7808Y10070D01*
X7812Y10065D01*
X7816Y10059D01*
X7821Y10052D01*
X7825Y10045D01*
X7829Y10036D01*
X7833Y10028D01*
X7837Y10018D01*
X7839Y10008D01*
X7842Y9998D01*
X7843Y9987D01*
X7844Y9975D01*
Y9975D01*
Y9973D01*
Y9971D01*
X7843Y9969D01*
Y9965D01*
X7843Y9961D01*
X7841Y9952D01*
X7839Y9941D01*
X7835Y9929D01*
X7829Y9917D01*
X7826Y9911D01*
X7822Y9905D01*
Y9905D01*
X7821Y9904D01*
X7820Y9902D01*
X7818Y9900D01*
X7816Y9898D01*
X7813Y9895D01*
X7810Y9892D01*
X7806Y9889D01*
X7802Y9885D01*
X7797Y9881D01*
X7792Y9877D01*
X7786Y9874D01*
X7780Y9870D01*
X7773Y9866D01*
X7766Y9863D01*
X7758Y9860D01*
X7759D01*
X7761Y9859D01*
X7763Y9858D01*
X7767Y9856D01*
X7771Y9855D01*
X7777Y9852D01*
X7782Y9849D01*
X7788Y9846D01*
X7801Y9838D01*
X7815Y9829D01*
X7828Y9817D01*
X7834Y9811D01*
X7839Y9804D01*
X7840Y9803D01*
X7840Y9802D01*
X7842Y9800D01*
X7844Y9797D01*
X7846Y9793D01*
X7848Y9789D01*
X7851Y9784D01*
X7853Y9778D01*
X7856Y9771D01*
X7858Y9765D01*
X7861Y9757D01*
X7863Y9749D01*
X7866Y9731D01*
X7867Y9722D01*
X7867Y9712D01*
Y9711D01*
Y9709D01*
X7867Y9705D01*
X7866Y9700D01*
X7866Y9694D01*
X7864Y9686D01*
X7863Y9678D01*
X7861Y9669D01*
X7858Y9659D01*
X7854Y9649D01*
X7850Y9639D01*
X7845Y9629D01*
X7839Y9618D01*
X7832Y9608D01*
X7824Y9597D01*
X7815Y9588D01*
X7814Y9587D01*
X7812Y9586D01*
X7809Y9583D01*
X7805Y9580D01*
X7800Y9576D01*
X7794Y9572D01*
X7786Y9567D01*
X7778Y9563D01*
X7768Y9558D01*
X7758Y9554D01*
X7747Y9549D01*
X7735Y9546D01*
X7722Y9542D01*
X7708Y9540D01*
X7693Y9538D01*
X7677Y9538D01*
X7673D01*
X7669Y9538D01*
X7663Y9539D01*
X7656Y9539D01*
X7647Y9540D01*
X7638Y9542D01*
X7628Y9544D01*
X7617Y9547D01*
X7606Y9550D01*
X7595Y9554D01*
X7583Y9559D01*
X7571Y9565D01*
X7560Y9572D01*
X7549Y9579D01*
X7539Y9588D01*
X7539Y9589D01*
X7537Y9591D01*
X7534Y9593D01*
X7531Y9597D01*
X7527Y9602D01*
X7523Y9608D01*
X7518Y9615D01*
X7513Y9623D01*
X7508Y9632D01*
X7504Y9641D01*
X7499Y9651D01*
X7495Y9663D01*
X7492Y9674D01*
X7490Y9687D01*
X7488Y9700D01*
X7487Y9714D01*
Y9714D01*
Y9716D01*
Y9719D01*
X7488Y9723D01*
X7488Y9728D01*
X7489Y9734D01*
X7490Y9740D01*
X7491Y9747D01*
X7494Y9762D01*
X7497Y9770D01*
X7499Y9777D01*
X7503Y9785D01*
X7506Y9793D01*
X7511Y9801D01*
X7516Y9808D01*
X7516Y9809D01*
X7517Y9810D01*
X7519Y9812D01*
X7521Y9814D01*
X7524Y9817D01*
X7528Y9821D01*
X7532Y9825D01*
X7537Y9829D01*
X7542Y9833D01*
X7548Y9838D01*
X7555Y9842D01*
X7562Y9846D01*
X7570Y9850D01*
X7579Y9854D01*
X7588Y9857D01*
X7597Y9860D01*
X7597D01*
X7595Y9861D01*
X7593Y9861D01*
X7590Y9863D01*
X7586Y9864D01*
X7582Y9866D01*
X7572Y9872D01*
X7562Y9878D01*
X7551Y9886D01*
X7540Y9895D01*
X7536Y9900D01*
X7531Y9906D01*
Y9906D01*
X7530Y9907D01*
X7529Y9909D01*
X7528Y9911D01*
X7526Y9914D01*
X7525Y9917D01*
X7523Y9921D01*
X7521Y9926D01*
X7517Y9936D01*
X7514Y9949D01*
X7511Y9962D01*
X7510Y9977D01*
Y9978D01*
Y9980D01*
X7511Y9983D01*
Y9988D01*
X7512Y9993D01*
X7513Y9999D01*
X7514Y10006D01*
X7516Y10014D01*
X7518Y10022D01*
X7521Y10030D01*
X7525Y10039D01*
X7529Y10048D01*
X7534Y10057D01*
X7540Y10066D01*
X7547Y10074D01*
X7555Y10083D01*
X7556Y10083D01*
X7557Y10085D01*
X7560Y10087D01*
X7564Y10089D01*
X7568Y10093D01*
X7574Y10096D01*
X7580Y10100D01*
X7587Y10104D01*
X7596Y10108D01*
X7605Y10112D01*
X7615Y10116D01*
X7625Y10119D01*
X7637Y10122D01*
X7649Y10124D01*
X7662Y10125D01*
X7676Y10126D01*
X7679D01*
X7683Y10125D01*
D02*
G37*
G36*
X6651Y9346D02*
X6657D01*
X6663Y9345D01*
X6671Y9345D01*
X6679Y9344D01*
X6687Y9343D01*
X6696Y9341D01*
X6715Y9337D01*
X6735Y9332D01*
X6754Y9325D01*
X6754D01*
X6756Y9324D01*
X6758Y9323D01*
X6762Y9321D01*
X6766Y9319D01*
X6771Y9317D01*
X6776Y9314D01*
X6782Y9310D01*
X6794Y9301D01*
X6806Y9291D01*
X6818Y9279D01*
X6824Y9272D01*
X6829Y9264D01*
X6830Y9264D01*
X6830Y9262D01*
X6832Y9260D01*
X6833Y9257D01*
X6835Y9253D01*
X6838Y9249D01*
X6840Y9244D01*
X6843Y9238D01*
X6845Y9232D01*
X6848Y9225D01*
X6850Y9217D01*
X6852Y9209D01*
X6856Y9192D01*
X6857Y9183D01*
X6858Y9174D01*
X6785Y9168D01*
Y9169D01*
X6784Y9171D01*
X6784Y9173D01*
X6783Y9177D01*
X6782Y9182D01*
X6781Y9187D01*
X6779Y9193D01*
X6777Y9199D01*
X6772Y9212D01*
X6769Y9219D01*
X6765Y9226D01*
X6761Y9233D01*
X6756Y9239D01*
X6750Y9245D01*
X6744Y9251D01*
X6744Y9251D01*
X6743Y9252D01*
X6741Y9253D01*
X6738Y9255D01*
X6734Y9257D01*
X6730Y9260D01*
X6725Y9262D01*
X6719Y9265D01*
X6712Y9267D01*
X6705Y9270D01*
X6697Y9272D01*
X6688Y9274D01*
X6678Y9276D01*
X6667Y9278D01*
X6656Y9278D01*
X6644Y9279D01*
X6637D01*
X6632Y9278D01*
X6627Y9278D01*
X6620Y9277D01*
X6613Y9277D01*
X6605Y9276D01*
X6588Y9273D01*
X6572Y9268D01*
X6564Y9265D01*
X6556Y9262D01*
X6549Y9258D01*
X6542Y9253D01*
X6542Y9253D01*
X6541Y9252D01*
X6539Y9251D01*
X6537Y9249D01*
X6535Y9246D01*
X6532Y9243D01*
X6527Y9236D01*
X6521Y9227D01*
X6516Y9217D01*
X6514Y9211D01*
X6512Y9205D01*
X6511Y9198D01*
X6511Y9192D01*
Y9191D01*
Y9190D01*
Y9189D01*
X6511Y9187D01*
X6512Y9181D01*
X6514Y9174D01*
X6516Y9166D01*
X6520Y9157D01*
X6526Y9149D01*
X6529Y9145D01*
X6533Y9141D01*
X6534D01*
X6534Y9140D01*
X6536Y9139D01*
X6538Y9137D01*
X6541Y9135D01*
X6545Y9133D01*
X6550Y9131D01*
X6556Y9128D01*
X6563Y9125D01*
X6571Y9122D01*
X6580Y9119D01*
X6591Y9115D01*
X6603Y9111D01*
X6617Y9108D01*
X6632Y9104D01*
X6648Y9100D01*
X6649D01*
X6652Y9099D01*
X6657Y9098D01*
X6663Y9096D01*
X6671Y9094D01*
X6680Y9092D01*
X6689Y9090D01*
X6699Y9087D01*
X6721Y9082D01*
X6742Y9076D01*
X6752Y9072D01*
X6761Y9069D01*
X6770Y9066D01*
X6777Y9063D01*
X6777Y9063D01*
X6779Y9062D01*
X6782Y9061D01*
X6785Y9059D01*
X6789Y9057D01*
X6794Y9054D01*
X6799Y9051D01*
X6805Y9047D01*
X6817Y9039D01*
X6829Y9028D01*
X6841Y9017D01*
X6846Y9011D01*
X6851Y9004D01*
X6851Y9004D01*
X6852Y9003D01*
X6853Y9001D01*
X6855Y8998D01*
X6856Y8995D01*
X6859Y8991D01*
X6861Y8986D01*
X6863Y8981D01*
X6865Y8975D01*
X6868Y8969D01*
X6871Y8955D01*
X6874Y8939D01*
X6875Y8931D01*
X6875Y8922D01*
Y8922D01*
Y8920D01*
Y8918D01*
X6875Y8914D01*
X6874Y8910D01*
X6874Y8906D01*
X6873Y8900D01*
X6872Y8894D01*
X6869Y8881D01*
X6864Y8866D01*
X6861Y8859D01*
X6858Y8851D01*
X6853Y8843D01*
X6849Y8836D01*
X6848Y8835D01*
X6848Y8834D01*
X6846Y8832D01*
X6844Y8829D01*
X6841Y8826D01*
X6838Y8822D01*
X6834Y8817D01*
X6829Y8813D01*
X6824Y8808D01*
X6819Y8803D01*
X6812Y8797D01*
X6806Y8792D01*
X6798Y8787D01*
X6790Y8782D01*
X6782Y8777D01*
X6773Y8773D01*
X6772D01*
X6771Y8772D01*
X6768Y8771D01*
X6764Y8769D01*
X6759Y8768D01*
X6754Y8766D01*
X6747Y8764D01*
X6740Y8762D01*
X6732Y8759D01*
X6724Y8757D01*
X6715Y8755D01*
X6705Y8754D01*
X6695Y8752D01*
X6684Y8751D01*
X6673Y8751D01*
X6662Y8750D01*
X6654D01*
X6649Y8751D01*
X6642D01*
X6634Y8751D01*
X6625Y8752D01*
X6616Y8753D01*
X6606Y8754D01*
X6595Y8756D01*
X6573Y8760D01*
X6551Y8765D01*
X6540Y8769D01*
X6530Y8773D01*
X6530Y8773D01*
X6528Y8774D01*
X6525Y8775D01*
X6522Y8777D01*
X6517Y8779D01*
X6512Y8782D01*
X6506Y8786D01*
X6500Y8790D01*
X6493Y8795D01*
X6487Y8800D01*
X6480Y8805D01*
X6473Y8811D01*
X6466Y8818D01*
X6459Y8825D01*
X6453Y8833D01*
X6447Y8841D01*
X6447Y8842D01*
X6446Y8843D01*
X6444Y8846D01*
X6443Y8849D01*
X6440Y8854D01*
X6438Y8859D01*
X6435Y8865D01*
X6432Y8872D01*
X6429Y8879D01*
X6426Y8887D01*
X6424Y8895D01*
X6421Y8905D01*
X6418Y8924D01*
X6416Y8935D01*
X6416Y8945D01*
X6488Y8952D01*
Y8951D01*
X6488Y8950D01*
Y8948D01*
X6489Y8945D01*
X6489Y8941D01*
X6490Y8937D01*
X6491Y8932D01*
X6493Y8927D01*
X6496Y8915D01*
X6500Y8903D01*
X6505Y8891D01*
X6511Y8880D01*
Y8880D01*
X6512Y8879D01*
X6513Y8878D01*
X6515Y8876D01*
X6519Y8871D01*
X6526Y8864D01*
X6534Y8857D01*
X6544Y8849D01*
X6556Y8842D01*
X6569Y8835D01*
X6570D01*
X6571Y8835D01*
X6573Y8834D01*
X6576Y8833D01*
X6580Y8831D01*
X6584Y8830D01*
X6589Y8828D01*
X6595Y8827D01*
X6602Y8825D01*
X6608Y8824D01*
X6623Y8821D01*
X6640Y8819D01*
X6658Y8818D01*
X6666D01*
X6669Y8819D01*
X6674D01*
X6679Y8819D01*
X6684Y8820D01*
X6696Y8821D01*
X6709Y8824D01*
X6722Y8827D01*
X6735Y8831D01*
X6736D01*
X6737Y8832D01*
X6738Y8833D01*
X6741Y8834D01*
X6747Y8837D01*
X6754Y8841D01*
X6762Y8846D01*
X6770Y8852D01*
X6778Y8859D01*
X6785Y8867D01*
Y8867D01*
X6786Y8868D01*
X6788Y8871D01*
X6790Y8875D01*
X6794Y8881D01*
X6797Y8889D01*
X6799Y8897D01*
X6801Y8906D01*
X6802Y8916D01*
Y8917D01*
Y8917D01*
Y8919D01*
Y8921D01*
X6801Y8926D01*
X6800Y8932D01*
X6798Y8940D01*
X6795Y8947D01*
X6791Y8956D01*
X6786Y8963D01*
X6785Y8964D01*
X6783Y8967D01*
X6779Y8970D01*
X6773Y8975D01*
X6766Y8981D01*
X6757Y8986D01*
X6746Y8992D01*
X6734Y8997D01*
X6733D01*
X6733Y8998D01*
X6731Y8998D01*
X6729Y8999D01*
X6726Y9000D01*
X6722Y9001D01*
X6718Y9003D01*
X6712Y9004D01*
X6706Y9006D01*
X6698Y9008D01*
X6690Y9010D01*
X6680Y9013D01*
X6670Y9016D01*
X6658Y9019D01*
X6645Y9022D01*
X6630Y9025D01*
X6629D01*
X6627Y9026D01*
X6623Y9027D01*
X6617Y9029D01*
X6611Y9030D01*
X6603Y9032D01*
X6595Y9035D01*
X6587Y9037D01*
X6568Y9043D01*
X6550Y9049D01*
X6541Y9052D01*
X6533Y9055D01*
X6525Y9058D01*
X6519Y9061D01*
X6518Y9062D01*
X6517Y9062D01*
X6515Y9064D01*
X6512Y9065D01*
X6509Y9067D01*
X6505Y9070D01*
X6496Y9076D01*
X6486Y9084D01*
X6476Y9093D01*
X6466Y9104D01*
X6457Y9115D01*
Y9116D01*
X6456Y9117D01*
X6455Y9118D01*
X6454Y9121D01*
X6453Y9124D01*
X6451Y9127D01*
X6449Y9132D01*
X6447Y9136D01*
X6444Y9147D01*
X6440Y9159D01*
X6438Y9172D01*
X6437Y9187D01*
Y9187D01*
Y9189D01*
Y9191D01*
X6438Y9194D01*
X6438Y9198D01*
X6439Y9203D01*
X6439Y9208D01*
X6440Y9214D01*
X6443Y9226D01*
X6448Y9240D01*
X6450Y9247D01*
X6454Y9254D01*
X6457Y9262D01*
X6462Y9269D01*
X6462Y9269D01*
X6463Y9270D01*
X6464Y9272D01*
X6466Y9275D01*
X6469Y9278D01*
X6472Y9282D01*
X6476Y9286D01*
X6480Y9290D01*
X6485Y9295D01*
X6490Y9300D01*
X6496Y9304D01*
X6503Y9309D01*
X6510Y9314D01*
X6518Y9318D01*
X6526Y9322D01*
X6534Y9326D01*
X6535D01*
X6536Y9327D01*
X6539Y9328D01*
X6543Y9329D01*
X6547Y9331D01*
X6553Y9333D01*
X6559Y9334D01*
X6566Y9336D01*
X6573Y9338D01*
X6581Y9340D01*
X6590Y9342D01*
X6599Y9343D01*
X6619Y9345D01*
X6640Y9346D01*
X6647D01*
X6651Y9346D01*
D02*
G37*
G36*
X7217Y10123D02*
X7229D01*
X7243Y10122D01*
X7258Y10121D01*
X7272Y10120D01*
X7278Y10119D01*
X7284Y10118D01*
X7285D01*
X7286Y10118D01*
X7288Y10117D01*
X7291Y10117D01*
X7295Y10116D01*
X7299Y10115D01*
X7309Y10112D01*
X7320Y10108D01*
X7332Y10104D01*
X7344Y10098D01*
X7355Y10091D01*
X7356D01*
X7357Y10090D01*
X7358Y10089D01*
X7360Y10087D01*
X7365Y10083D01*
X7372Y10077D01*
X7379Y10069D01*
X7387Y10059D01*
X7395Y10048D01*
X7402Y10035D01*
Y10035D01*
X7403Y10034D01*
X7403Y10032D01*
X7405Y10029D01*
X7406Y10026D01*
X7407Y10022D01*
X7409Y10017D01*
X7411Y10012D01*
X7412Y10007D01*
X7414Y10001D01*
X7417Y9987D01*
X7419Y9972D01*
X7420Y9957D01*
Y9956D01*
Y9954D01*
X7419Y9950D01*
Y9944D01*
X7418Y9938D01*
X7417Y9931D01*
X7416Y9923D01*
X7414Y9914D01*
X7411Y9904D01*
X7408Y9894D01*
X7404Y9884D01*
X7400Y9873D01*
X7395Y9863D01*
X7388Y9852D01*
X7381Y9842D01*
X7373Y9832D01*
X7372Y9832D01*
X7371Y9830D01*
X7368Y9828D01*
X7364Y9824D01*
X7358Y9821D01*
X7351Y9816D01*
X7343Y9812D01*
X7334Y9807D01*
X7323Y9802D01*
X7311Y9798D01*
X7297Y9793D01*
X7281Y9790D01*
X7264Y9786D01*
X7246Y9784D01*
X7225Y9782D01*
X7203Y9782D01*
X7056D01*
Y9547D01*
X6979D01*
Y10124D01*
X7211D01*
X7217Y10123D01*
D02*
G37*
G36*
X6323Y10056D02*
X5982D01*
Y9880D01*
X6301D01*
Y9812D01*
X5982D01*
Y9615D01*
X6336D01*
Y9547D01*
X5906D01*
Y10124D01*
X6323D01*
Y10056D01*
D02*
G37*
G36*
X7698Y8933D02*
X7480D01*
Y9004D01*
X7698D01*
Y8933D01*
D02*
G37*
G36*
X7217Y9336D02*
X7229D01*
X7243Y9335D01*
X7258Y9334D01*
X7272Y9333D01*
X7278Y9332D01*
X7284Y9331D01*
X7285D01*
X7286Y9330D01*
X7288Y9330D01*
X7291Y9329D01*
X7295Y9328D01*
X7299Y9327D01*
X7309Y9325D01*
X7320Y9321D01*
X7332Y9316D01*
X7344Y9310D01*
X7355Y9303D01*
X7356D01*
X7357Y9302D01*
X7358Y9301D01*
X7360Y9300D01*
X7365Y9295D01*
X7372Y9289D01*
X7379Y9281D01*
X7387Y9272D01*
X7395Y9260D01*
X7402Y9248D01*
Y9247D01*
X7403Y9246D01*
X7403Y9244D01*
X7405Y9242D01*
X7406Y9238D01*
X7407Y9234D01*
X7409Y9230D01*
X7411Y9225D01*
X7412Y9219D01*
X7414Y9213D01*
X7417Y9200D01*
X7419Y9185D01*
X7420Y9169D01*
Y9168D01*
Y9166D01*
X7419Y9162D01*
Y9157D01*
X7418Y9151D01*
X7417Y9143D01*
X7416Y9135D01*
X7414Y9126D01*
X7411Y9117D01*
X7408Y9107D01*
X7404Y9096D01*
X7400Y9086D01*
X7395Y9075D01*
X7388Y9065D01*
X7381Y9055D01*
X7373Y9045D01*
X7372Y9044D01*
X7371Y9043D01*
X7368Y9040D01*
X7364Y9037D01*
X7358Y9033D01*
X7351Y9029D01*
X7343Y9024D01*
X7334Y9020D01*
X7323Y9015D01*
X7311Y9010D01*
X7297Y9006D01*
X7281Y9002D01*
X7264Y8999D01*
X7246Y8996D01*
X7225Y8995D01*
X7203Y8994D01*
X7056D01*
Y8760D01*
X6979D01*
Y9336D01*
X7211D01*
X7217Y9336D01*
D02*
G37*
G36*
X6323Y9268D02*
X5982D01*
Y9092D01*
X6301D01*
Y9024D01*
X5982D01*
Y8828D01*
X6336D01*
Y8760D01*
X5906D01*
Y9336D01*
X6323D01*
Y9268D01*
D02*
G37*
G36*
X8403Y9338D02*
X8409D01*
X8416Y9337D01*
X8424Y9336D01*
X8433Y9334D01*
X8443Y9333D01*
X8453Y9330D01*
X8464Y9327D01*
X8475Y9323D01*
X8486Y9319D01*
X8497Y9314D01*
X8507Y9307D01*
X8517Y9300D01*
X8527Y9292D01*
X8527Y9292D01*
X8529Y9290D01*
X8531Y9288D01*
X8534Y9284D01*
X8538Y9280D01*
X8542Y9274D01*
X8546Y9268D01*
X8551Y9261D01*
X8556Y9253D01*
X8560Y9244D01*
X8564Y9235D01*
X8568Y9225D01*
X8571Y9214D01*
X8573Y9203D01*
X8575Y9191D01*
X8575Y9178D01*
Y9178D01*
Y9177D01*
Y9175D01*
Y9172D01*
X8575Y9169D01*
Y9165D01*
X8573Y9157D01*
X8572Y9146D01*
X8569Y9135D01*
X8566Y9122D01*
X8561Y9110D01*
Y9109D01*
X8560Y9108D01*
X8559Y9106D01*
X8558Y9104D01*
X8557Y9101D01*
X8555Y9097D01*
X8552Y9093D01*
X8550Y9089D01*
X8543Y9078D01*
X8535Y9066D01*
X8525Y9053D01*
X8514Y9040D01*
X8513Y9039D01*
X8512Y9038D01*
X8510Y9036D01*
X8508Y9033D01*
X8504Y9029D01*
X8499Y9025D01*
X8494Y9019D01*
X8488Y9013D01*
X8481Y9006D01*
X8473Y8999D01*
X8464Y8990D01*
X8454Y8981D01*
X8444Y8972D01*
X8432Y8961D01*
X8419Y8950D01*
X8405Y8938D01*
X8405Y8938D01*
X8402Y8936D01*
X8399Y8933D01*
X8395Y8930D01*
X8390Y8925D01*
X8384Y8920D01*
X8378Y8915D01*
X8371Y8909D01*
X8357Y8897D01*
X8344Y8885D01*
X8338Y8880D01*
X8332Y8874D01*
X8327Y8870D01*
X8323Y8866D01*
X8322Y8865D01*
X8320Y8863D01*
X8317Y8859D01*
X8313Y8854D01*
X8308Y8848D01*
X8303Y8842D01*
X8298Y8835D01*
X8294Y8828D01*
X8576D01*
Y8760D01*
X8195D01*
Y8760D01*
Y8761D01*
Y8762D01*
Y8764D01*
Y8769D01*
X8196Y8775D01*
X8197Y8783D01*
X8198Y8791D01*
X8200Y8800D01*
X8203Y8809D01*
Y8809D01*
X8204Y8811D01*
X8205Y8813D01*
X8206Y8815D01*
X8208Y8819D01*
X8210Y8823D01*
X8212Y8828D01*
X8215Y8833D01*
X8221Y8845D01*
X8229Y8857D01*
X8239Y8871D01*
X8250Y8885D01*
X8250Y8886D01*
X8251Y8887D01*
X8253Y8889D01*
X8256Y8892D01*
X8259Y8895D01*
X8263Y8900D01*
X8268Y8905D01*
X8273Y8910D01*
X8280Y8916D01*
X8286Y8923D01*
X8294Y8930D01*
X8302Y8938D01*
X8311Y8946D01*
X8321Y8954D01*
X8331Y8963D01*
X8342Y8972D01*
X8343D01*
X8343Y8973D01*
X8346Y8976D01*
X8351Y8980D01*
X8357Y8985D01*
X8365Y8992D01*
X8374Y8999D01*
X8383Y9008D01*
X8393Y9017D01*
X8404Y9026D01*
X8415Y9036D01*
X8425Y9046D01*
X8436Y9057D01*
X8445Y9067D01*
X8454Y9077D01*
X8462Y9086D01*
X8469Y9095D01*
X8470Y9095D01*
X8471Y9097D01*
X8472Y9099D01*
X8474Y9102D01*
X8477Y9106D01*
X8480Y9111D01*
X8483Y9116D01*
X8486Y9122D01*
X8492Y9135D01*
X8497Y9150D01*
X8499Y9157D01*
X8501Y9165D01*
X8502Y9172D01*
X8502Y9180D01*
Y9180D01*
Y9182D01*
Y9184D01*
X8502Y9187D01*
X8501Y9190D01*
X8501Y9195D01*
X8500Y9199D01*
X8499Y9204D01*
X8495Y9216D01*
X8493Y9221D01*
X8490Y9227D01*
X8486Y9233D01*
X8482Y9239D01*
X8478Y9245D01*
X8472Y9251D01*
X8472Y9251D01*
X8471Y9252D01*
X8469Y9253D01*
X8467Y9255D01*
X8464Y9257D01*
X8460Y9260D01*
X8456Y9263D01*
X8451Y9265D01*
X8446Y9268D01*
X8440Y9271D01*
X8433Y9273D01*
X8426Y9275D01*
X8419Y9277D01*
X8411Y9279D01*
X8403Y9279D01*
X8394Y9280D01*
X8389D01*
X8385Y9279D01*
X8381Y9279D01*
X8376Y9278D01*
X8370Y9277D01*
X8364Y9276D01*
X8351Y9272D01*
X8345Y9270D01*
X8338Y9267D01*
X8331Y9263D01*
X8325Y9259D01*
X8318Y9254D01*
X8312Y9249D01*
X8312Y9248D01*
X8311Y9247D01*
X8309Y9246D01*
X8308Y9243D01*
X8305Y9240D01*
X8303Y9236D01*
X8300Y9232D01*
X8297Y9227D01*
X8294Y9221D01*
X8291Y9214D01*
X8289Y9207D01*
X8287Y9200D01*
X8285Y9192D01*
X8283Y9183D01*
X8282Y9174D01*
X8282Y9164D01*
X8209Y9171D01*
Y9172D01*
X8209Y9175D01*
X8210Y9179D01*
X8211Y9185D01*
X8212Y9191D01*
X8214Y9199D01*
X8216Y9208D01*
X8218Y9217D01*
X8222Y9227D01*
X8225Y9237D01*
X8230Y9248D01*
X8235Y9258D01*
X8241Y9268D01*
X8248Y9278D01*
X8256Y9287D01*
X8264Y9295D01*
X8265Y9296D01*
X8267Y9297D01*
X8269Y9299D01*
X8273Y9302D01*
X8278Y9305D01*
X8284Y9309D01*
X8291Y9313D01*
X8299Y9317D01*
X8308Y9321D01*
X8318Y9325D01*
X8329Y9328D01*
X8340Y9332D01*
X8353Y9334D01*
X8366Y9336D01*
X8380Y9338D01*
X8395Y9338D01*
X8399D01*
X8403Y9338D01*
D02*
G37*
G36*
X8023Y8760D02*
X7952D01*
Y9210D01*
X7951Y9210D01*
X7951Y9209D01*
X7949Y9208D01*
X7947Y9206D01*
X7944Y9204D01*
X7941Y9201D01*
X7938Y9198D01*
X7934Y9195D01*
X7924Y9188D01*
X7912Y9179D01*
X7899Y9170D01*
X7884Y9161D01*
X7884Y9161D01*
X7882Y9160D01*
X7880Y9159D01*
X7877Y9157D01*
X7874Y9155D01*
X7870Y9153D01*
X7865Y9150D01*
X7860Y9148D01*
X7848Y9142D01*
X7836Y9136D01*
X7823Y9130D01*
X7810Y9125D01*
Y9193D01*
X7811Y9194D01*
X7813Y9195D01*
X7816Y9196D01*
X7820Y9198D01*
X7825Y9201D01*
X7831Y9204D01*
X7838Y9208D01*
X7845Y9212D01*
X7853Y9217D01*
X7861Y9222D01*
X7879Y9234D01*
X7897Y9247D01*
X7914Y9261D01*
X7914Y9261D01*
X7916Y9263D01*
X7918Y9265D01*
X7921Y9268D01*
X7925Y9271D01*
X7929Y9275D01*
X7933Y9280D01*
X7938Y9285D01*
X7949Y9297D01*
X7959Y9310D01*
X7969Y9324D01*
X7973Y9331D01*
X7977Y9338D01*
X8023D01*
Y8760D01*
D02*
G37*
G36*
X8600Y10125D02*
X8605Y10125D01*
X8612Y10124D01*
X8620Y10123D01*
X8628Y10121D01*
X8636Y10119D01*
X8645Y10116D01*
X8655Y10113D01*
X8664Y10110D01*
X8673Y10105D01*
X8682Y10100D01*
X8691Y10094D01*
X8700Y10087D01*
X8700Y10087D01*
X8702Y10086D01*
X8704Y10083D01*
X8707Y10080D01*
X8710Y10076D01*
X8714Y10072D01*
X8718Y10066D01*
X8723Y10060D01*
X8727Y10053D01*
X8732Y10045D01*
X8736Y10036D01*
X8740Y10027D01*
X8744Y10017D01*
X8747Y10006D01*
X8750Y9994D01*
X8752Y9982D01*
X8682Y9977D01*
Y9977D01*
X8681Y9979D01*
X8681Y9981D01*
X8680Y9984D01*
X8679Y9987D01*
X8678Y9991D01*
X8675Y10000D01*
X8671Y10010D01*
X8666Y10020D01*
X8661Y10029D01*
X8658Y10033D01*
X8655Y10037D01*
X8654Y10038D01*
X8653Y10039D01*
X8652Y10040D01*
X8650Y10042D01*
X8647Y10044D01*
X8643Y10047D01*
X8639Y10050D01*
X8635Y10053D01*
X8625Y10058D01*
X8613Y10063D01*
X8606Y10065D01*
X8599Y10066D01*
X8591Y10067D01*
X8584Y10068D01*
X8580D01*
X8578Y10067D01*
X8575D01*
X8572Y10067D01*
X8564Y10065D01*
X8554Y10063D01*
X8544Y10060D01*
X8534Y10055D01*
X8524Y10049D01*
X8524Y10048D01*
X8523Y10048D01*
X8521Y10046D01*
X8519Y10044D01*
X8516Y10042D01*
X8513Y10039D01*
X8509Y10035D01*
X8505Y10031D01*
X8501Y10026D01*
X8497Y10021D01*
X8492Y10015D01*
X8488Y10008D01*
X8483Y10001D01*
X8479Y9994D01*
X8475Y9986D01*
X8471Y9977D01*
Y9977D01*
X8470Y9975D01*
X8470Y9972D01*
X8468Y9969D01*
X8467Y9964D01*
X8465Y9958D01*
X8463Y9951D01*
X8462Y9943D01*
X8460Y9934D01*
X8458Y9924D01*
X8457Y9913D01*
X8455Y9902D01*
X8454Y9889D01*
X8453Y9875D01*
X8452Y9860D01*
X8452Y9844D01*
X8452Y9845D01*
X8453Y9846D01*
X8454Y9848D01*
X8456Y9851D01*
X8459Y9854D01*
X8462Y9858D01*
X8469Y9866D01*
X8478Y9876D01*
X8489Y9885D01*
X8501Y9894D01*
X8514Y9902D01*
X8515D01*
X8516Y9903D01*
X8518Y9904D01*
X8521Y9905D01*
X8524Y9907D01*
X8528Y9908D01*
X8533Y9910D01*
X8538Y9912D01*
X8549Y9915D01*
X8563Y9918D01*
X8577Y9920D01*
X8592Y9921D01*
X8595D01*
X8599Y9921D01*
X8604Y9920D01*
X8610Y9920D01*
X8617Y9918D01*
X8625Y9917D01*
X8633Y9915D01*
X8642Y9912D01*
X8652Y9908D01*
X8662Y9904D01*
X8672Y9899D01*
X8683Y9893D01*
X8693Y9886D01*
X8703Y9878D01*
X8712Y9869D01*
X8713Y9868D01*
X8714Y9866D01*
X8717Y9863D01*
X8720Y9859D01*
X8724Y9854D01*
X8728Y9848D01*
X8733Y9841D01*
X8737Y9832D01*
X8742Y9823D01*
X8746Y9813D01*
X8751Y9802D01*
X8754Y9790D01*
X8758Y9777D01*
X8760Y9764D01*
X8762Y9749D01*
X8762Y9734D01*
Y9734D01*
Y9732D01*
Y9729D01*
X8762Y9725D01*
Y9720D01*
X8761Y9715D01*
X8760Y9708D01*
X8759Y9701D01*
X8758Y9694D01*
X8757Y9686D01*
X8752Y9669D01*
X8747Y9651D01*
X8743Y9643D01*
X8739Y9634D01*
X8738Y9633D01*
X8738Y9632D01*
X8736Y9629D01*
X8734Y9626D01*
X8732Y9622D01*
X8729Y9618D01*
X8722Y9607D01*
X8713Y9596D01*
X8702Y9584D01*
X8689Y9573D01*
X8682Y9567D01*
X8674Y9562D01*
X8674Y9562D01*
X8672Y9561D01*
X8670Y9560D01*
X8667Y9558D01*
X8663Y9557D01*
X8659Y9555D01*
X8653Y9552D01*
X8647Y9550D01*
X8641Y9548D01*
X8634Y9546D01*
X8626Y9543D01*
X8618Y9542D01*
X8600Y9539D01*
X8591Y9538D01*
X8581Y9538D01*
X8577D01*
X8573Y9538D01*
X8567Y9539D01*
X8559Y9540D01*
X8550Y9541D01*
X8541Y9543D01*
X8530Y9546D01*
X8519Y9549D01*
X8507Y9554D01*
X8495Y9559D01*
X8483Y9565D01*
X8471Y9573D01*
X8459Y9581D01*
X8448Y9591D01*
X8437Y9603D01*
X8436Y9604D01*
X8434Y9606D01*
X8432Y9610D01*
X8428Y9615D01*
X8424Y9622D01*
X8419Y9631D01*
X8414Y9642D01*
X8409Y9654D01*
X8404Y9668D01*
X8399Y9684D01*
X8394Y9701D01*
X8390Y9720D01*
X8386Y9742D01*
X8384Y9765D01*
X8382Y9790D01*
X8381Y9817D01*
Y9817D01*
Y9819D01*
Y9821D01*
Y9824D01*
X8382Y9828D01*
Y9833D01*
Y9838D01*
X8382Y9844D01*
X8383Y9851D01*
X8383Y9858D01*
X8384Y9865D01*
X8385Y9874D01*
X8386Y9891D01*
X8389Y9910D01*
X8392Y9929D01*
X8396Y9949D01*
X8401Y9970D01*
X8407Y9990D01*
X8414Y10009D01*
X8422Y10028D01*
X8432Y10045D01*
X8437Y10052D01*
X8443Y10060D01*
X8443Y10061D01*
X8445Y10063D01*
X8448Y10066D01*
X8453Y10070D01*
X8458Y10075D01*
X8465Y10081D01*
X8472Y10087D01*
X8481Y10093D01*
X8491Y10099D01*
X8502Y10105D01*
X8514Y10110D01*
X8527Y10115D01*
X8541Y10120D01*
X8556Y10123D01*
X8572Y10125D01*
X8588Y10126D01*
X8595D01*
X8600Y10125D01*
D02*
G37*
G36*
X6651Y10133D02*
X6657D01*
X6663Y10133D01*
X6671Y10132D01*
X6679Y10131D01*
X6687Y10130D01*
X6696Y10129D01*
X6715Y10125D01*
X6735Y10120D01*
X6754Y10113D01*
X6754D01*
X6756Y10112D01*
X6758Y10111D01*
X6762Y10109D01*
X6766Y10107D01*
X6771Y10104D01*
X6776Y10101D01*
X6782Y10097D01*
X6794Y10089D01*
X6806Y10078D01*
X6818Y10066D01*
X6824Y10059D01*
X6829Y10052D01*
X6830Y10051D01*
X6830Y10050D01*
X6832Y10048D01*
X6833Y10045D01*
X6835Y10041D01*
X6838Y10036D01*
X6840Y10031D01*
X6843Y10025D01*
X6845Y10019D01*
X6848Y10012D01*
X6850Y10005D01*
X6852Y9997D01*
X6856Y9980D01*
X6857Y9971D01*
X6858Y9961D01*
X6785Y9956D01*
Y9956D01*
X6784Y9958D01*
X6784Y9961D01*
X6783Y9965D01*
X6782Y9969D01*
X6781Y9974D01*
X6779Y9980D01*
X6777Y9987D01*
X6772Y10000D01*
X6769Y10007D01*
X6765Y10014D01*
X6761Y10020D01*
X6756Y10027D01*
X6750Y10033D01*
X6744Y10038D01*
X6744Y10039D01*
X6743Y10039D01*
X6741Y10041D01*
X6738Y10043D01*
X6734Y10045D01*
X6730Y10047D01*
X6725Y10050D01*
X6719Y10052D01*
X6712Y10055D01*
X6705Y10057D01*
X6697Y10060D01*
X6688Y10062D01*
X6678Y10064D01*
X6667Y10065D01*
X6656Y10066D01*
X6644Y10066D01*
X6637D01*
X6632Y10066D01*
X6627Y10065D01*
X6620Y10065D01*
X6613Y10064D01*
X6605Y10063D01*
X6588Y10060D01*
X6572Y10056D01*
X6564Y10053D01*
X6556Y10049D01*
X6549Y10045D01*
X6542Y10041D01*
X6542Y10040D01*
X6541Y10040D01*
X6539Y10038D01*
X6537Y10036D01*
X6535Y10034D01*
X6532Y10031D01*
X6527Y10024D01*
X6521Y10015D01*
X6516Y10004D01*
X6514Y9998D01*
X6512Y9992D01*
X6511Y9986D01*
X6511Y9979D01*
Y9979D01*
Y9978D01*
Y9976D01*
X6511Y9974D01*
X6512Y9968D01*
X6514Y9961D01*
X6516Y9953D01*
X6520Y9945D01*
X6526Y9936D01*
X6529Y9932D01*
X6533Y9928D01*
X6534D01*
X6534Y9927D01*
X6536Y9926D01*
X6538Y9925D01*
X6541Y9923D01*
X6545Y9921D01*
X6550Y9918D01*
X6556Y9916D01*
X6563Y9913D01*
X6571Y9909D01*
X6580Y9906D01*
X6591Y9903D01*
X6603Y9899D01*
X6617Y9895D01*
X6632Y9891D01*
X6648Y9887D01*
X6649D01*
X6652Y9886D01*
X6657Y9885D01*
X6663Y9884D01*
X6671Y9882D01*
X6680Y9880D01*
X6689Y9877D01*
X6699Y9875D01*
X6721Y9869D01*
X6742Y9863D01*
X6752Y9860D01*
X6761Y9857D01*
X6770Y9854D01*
X6777Y9851D01*
X6777Y9850D01*
X6779Y9850D01*
X6782Y9848D01*
X6785Y9847D01*
X6789Y9844D01*
X6794Y9841D01*
X6799Y9838D01*
X6805Y9835D01*
X6817Y9826D01*
X6829Y9816D01*
X6841Y9804D01*
X6846Y9798D01*
X6851Y9792D01*
X6851Y9791D01*
X6852Y9790D01*
X6853Y9788D01*
X6855Y9785D01*
X6856Y9782D01*
X6859Y9778D01*
X6861Y9773D01*
X6863Y9768D01*
X6865Y9762D01*
X6868Y9756D01*
X6871Y9742D01*
X6874Y9727D01*
X6875Y9718D01*
X6875Y9710D01*
Y9709D01*
Y9708D01*
Y9705D01*
X6875Y9702D01*
X6874Y9698D01*
X6874Y9693D01*
X6873Y9688D01*
X6872Y9682D01*
X6869Y9668D01*
X6864Y9654D01*
X6861Y9646D01*
X6858Y9639D01*
X6853Y9631D01*
X6849Y9623D01*
X6848Y9623D01*
X6848Y9621D01*
X6846Y9619D01*
X6844Y9617D01*
X6841Y9613D01*
X6838Y9609D01*
X6834Y9605D01*
X6829Y9600D01*
X6824Y9595D01*
X6819Y9590D01*
X6812Y9585D01*
X6806Y9580D01*
X6798Y9574D01*
X6790Y9569D01*
X6782Y9565D01*
X6773Y9560D01*
X6772D01*
X6771Y9559D01*
X6768Y9558D01*
X6764Y9557D01*
X6759Y9555D01*
X6754Y9553D01*
X6747Y9551D01*
X6740Y9549D01*
X6732Y9547D01*
X6724Y9545D01*
X6715Y9543D01*
X6705Y9541D01*
X6695Y9540D01*
X6684Y9539D01*
X6673Y9538D01*
X6662Y9538D01*
X6654D01*
X6649Y9538D01*
X6642D01*
X6634Y9539D01*
X6625Y9540D01*
X6616Y9541D01*
X6606Y9542D01*
X6595Y9543D01*
X6573Y9547D01*
X6551Y9553D01*
X6540Y9556D01*
X6530Y9560D01*
X6530Y9561D01*
X6528Y9561D01*
X6525Y9563D01*
X6522Y9565D01*
X6517Y9567D01*
X6512Y9570D01*
X6506Y9573D01*
X6500Y9577D01*
X6493Y9582D01*
X6487Y9587D01*
X6480Y9593D01*
X6473Y9599D01*
X6466Y9606D01*
X6459Y9613D01*
X6453Y9620D01*
X6447Y9629D01*
X6447Y9629D01*
X6446Y9631D01*
X6444Y9633D01*
X6443Y9637D01*
X6440Y9641D01*
X6438Y9646D01*
X6435Y9652D01*
X6432Y9659D01*
X6429Y9666D01*
X6426Y9674D01*
X6424Y9683D01*
X6421Y9692D01*
X6418Y9712D01*
X6416Y9722D01*
X6416Y9733D01*
X6488Y9739D01*
Y9739D01*
X6488Y9737D01*
Y9735D01*
X6489Y9732D01*
X6489Y9728D01*
X6490Y9724D01*
X6491Y9719D01*
X6493Y9714D01*
X6496Y9703D01*
X6500Y9691D01*
X6505Y9679D01*
X6511Y9668D01*
Y9667D01*
X6512Y9667D01*
X6513Y9665D01*
X6515Y9663D01*
X6519Y9658D01*
X6526Y9652D01*
X6534Y9644D01*
X6544Y9637D01*
X6556Y9630D01*
X6569Y9623D01*
X6570D01*
X6571Y9622D01*
X6573Y9621D01*
X6576Y9620D01*
X6580Y9619D01*
X6584Y9617D01*
X6589Y9616D01*
X6595Y9614D01*
X6602Y9613D01*
X6608Y9611D01*
X6623Y9608D01*
X6640Y9606D01*
X6658Y9606D01*
X6666D01*
X6669Y9606D01*
X6674D01*
X6679Y9607D01*
X6684Y9607D01*
X6696Y9609D01*
X6709Y9611D01*
X6722Y9614D01*
X6735Y9619D01*
X6736D01*
X6737Y9619D01*
X6738Y9620D01*
X6741Y9621D01*
X6747Y9624D01*
X6754Y9628D01*
X6762Y9633D01*
X6770Y9639D01*
X6778Y9646D01*
X6785Y9654D01*
Y9655D01*
X6786Y9655D01*
X6788Y9658D01*
X6790Y9663D01*
X6794Y9669D01*
X6797Y9676D01*
X6799Y9685D01*
X6801Y9694D01*
X6802Y9704D01*
Y9704D01*
Y9705D01*
Y9706D01*
Y9708D01*
X6801Y9713D01*
X6800Y9720D01*
X6798Y9727D01*
X6795Y9735D01*
X6791Y9743D01*
X6786Y9751D01*
X6785Y9752D01*
X6783Y9754D01*
X6779Y9758D01*
X6773Y9763D01*
X6766Y9768D01*
X6757Y9774D01*
X6746Y9779D01*
X6734Y9785D01*
X6733D01*
X6733Y9785D01*
X6731Y9786D01*
X6729Y9786D01*
X6726Y9787D01*
X6722Y9789D01*
X6718Y9790D01*
X6712Y9792D01*
X6706Y9793D01*
X6698Y9796D01*
X6690Y9798D01*
X6680Y9800D01*
X6670Y9803D01*
X6658Y9806D01*
X6645Y9809D01*
X6630Y9813D01*
X6629D01*
X6627Y9814D01*
X6623Y9815D01*
X6617Y9816D01*
X6611Y9818D01*
X6603Y9820D01*
X6595Y9822D01*
X6587Y9825D01*
X6568Y9830D01*
X6550Y9836D01*
X6541Y9839D01*
X6533Y9842D01*
X6525Y9846D01*
X6519Y9849D01*
X6518Y9849D01*
X6517Y9850D01*
X6515Y9851D01*
X6512Y9853D01*
X6509Y9855D01*
X6505Y9857D01*
X6496Y9864D01*
X6486Y9872D01*
X6476Y9881D01*
X6466Y9891D01*
X6457Y9903D01*
Y9903D01*
X6456Y9904D01*
X6455Y9906D01*
X6454Y9908D01*
X6453Y9911D01*
X6451Y9915D01*
X6449Y9919D01*
X6447Y9924D01*
X6444Y9934D01*
X6440Y9946D01*
X6438Y9960D01*
X6437Y9974D01*
Y9975D01*
Y9976D01*
Y9979D01*
X6438Y9982D01*
X6438Y9986D01*
X6439Y9990D01*
X6439Y9995D01*
X6440Y10001D01*
X6443Y10014D01*
X6448Y10027D01*
X6450Y10035D01*
X6454Y10042D01*
X6457Y10049D01*
X6462Y10056D01*
X6462Y10057D01*
X6463Y10058D01*
X6464Y10060D01*
X6466Y10063D01*
X6469Y10066D01*
X6472Y10069D01*
X6476Y10073D01*
X6480Y10078D01*
X6485Y10082D01*
X6490Y10087D01*
X6496Y10092D01*
X6503Y10097D01*
X6510Y10101D01*
X6518Y10106D01*
X6526Y10110D01*
X6534Y10114D01*
X6535D01*
X6536Y10115D01*
X6539Y10116D01*
X6543Y10117D01*
X6547Y10118D01*
X6553Y10120D01*
X6559Y10122D01*
X6566Y10124D01*
X6573Y10126D01*
X6581Y10127D01*
X6590Y10129D01*
X6599Y10131D01*
X6619Y10133D01*
X6640Y10134D01*
X6647D01*
X6651Y10133D01*
D02*
G37*
G36*
X8135Y10125D02*
X8141D01*
X8148Y10124D01*
X8156Y10123D01*
X8165Y10122D01*
X8175Y10120D01*
X8185Y10118D01*
X8196Y10115D01*
X8207Y10111D01*
X8218Y10106D01*
X8229Y10101D01*
X8239Y10095D01*
X8249Y10088D01*
X8259Y10080D01*
X8259Y10079D01*
X8261Y10078D01*
X8263Y10075D01*
X8266Y10072D01*
X8270Y10067D01*
X8274Y10062D01*
X8278Y10055D01*
X8283Y10048D01*
X8288Y10040D01*
X8292Y10032D01*
X8296Y10022D01*
X8300Y10012D01*
X8303Y10002D01*
X8305Y9990D01*
X8307Y9978D01*
X8307Y9966D01*
Y9965D01*
Y9964D01*
Y9962D01*
Y9960D01*
X8307Y9957D01*
Y9953D01*
X8305Y9944D01*
X8304Y9934D01*
X8301Y9922D01*
X8298Y9910D01*
X8293Y9897D01*
Y9897D01*
X8292Y9896D01*
X8291Y9894D01*
X8290Y9892D01*
X8289Y9888D01*
X8287Y9885D01*
X8284Y9881D01*
X8282Y9876D01*
X8275Y9866D01*
X8267Y9854D01*
X8257Y9841D01*
X8246Y9827D01*
X8245Y9827D01*
X8244Y9826D01*
X8242Y9823D01*
X8240Y9820D01*
X8236Y9817D01*
X8231Y9812D01*
X8226Y9807D01*
X8220Y9801D01*
X8213Y9794D01*
X8205Y9786D01*
X8196Y9778D01*
X8186Y9769D01*
X8176Y9759D01*
X8164Y9749D01*
X8151Y9738D01*
X8137Y9726D01*
X8137Y9725D01*
X8134Y9723D01*
X8131Y9721D01*
X8127Y9717D01*
X8122Y9713D01*
X8116Y9708D01*
X8110Y9702D01*
X8103Y9697D01*
X8089Y9685D01*
X8076Y9673D01*
X8070Y9667D01*
X8064Y9662D01*
X8059Y9657D01*
X8055Y9653D01*
X8054Y9652D01*
X8052Y9650D01*
X8049Y9646D01*
X8045Y9641D01*
X8040Y9636D01*
X8035Y9629D01*
X8030Y9622D01*
X8026Y9615D01*
X8308D01*
Y9547D01*
X7927D01*
Y9548D01*
Y9548D01*
Y9550D01*
Y9552D01*
Y9557D01*
X7928Y9563D01*
X7929Y9570D01*
X7930Y9579D01*
X7932Y9587D01*
X7935Y9596D01*
Y9597D01*
X7936Y9598D01*
X7937Y9600D01*
X7938Y9603D01*
X7940Y9606D01*
X7942Y9611D01*
X7944Y9615D01*
X7947Y9620D01*
X7953Y9632D01*
X7961Y9645D01*
X7971Y9659D01*
X7982Y9673D01*
X7982Y9673D01*
X7983Y9674D01*
X7985Y9677D01*
X7988Y9679D01*
X7991Y9683D01*
X7995Y9687D01*
X8000Y9692D01*
X8005Y9698D01*
X8012Y9704D01*
X8018Y9710D01*
X8026Y9718D01*
X8034Y9725D01*
X8043Y9733D01*
X8053Y9742D01*
X8063Y9751D01*
X8074Y9760D01*
X8075D01*
X8075Y9761D01*
X8078Y9763D01*
X8083Y9767D01*
X8089Y9773D01*
X8097Y9779D01*
X8106Y9787D01*
X8115Y9795D01*
X8125Y9804D01*
X8136Y9814D01*
X8147Y9824D01*
X8157Y9834D01*
X8168Y9844D01*
X8177Y9854D01*
X8186Y9864D01*
X8194Y9873D01*
X8201Y9882D01*
X8202Y9883D01*
X8203Y9884D01*
X8204Y9887D01*
X8206Y9890D01*
X8209Y9894D01*
X8212Y9899D01*
X8215Y9904D01*
X8218Y9910D01*
X8224Y9923D01*
X8229Y9937D01*
X8231Y9945D01*
X8233Y9952D01*
X8234Y9960D01*
X8234Y9967D01*
Y9968D01*
Y9969D01*
Y9971D01*
X8234Y9974D01*
X8233Y9978D01*
X8233Y9982D01*
X8232Y9987D01*
X8231Y9992D01*
X8227Y10003D01*
X8225Y10009D01*
X8222Y10015D01*
X8218Y10021D01*
X8214Y10027D01*
X8210Y10033D01*
X8204Y10038D01*
X8204Y10039D01*
X8203Y10040D01*
X8201Y10041D01*
X8199Y10043D01*
X8196Y10045D01*
X8192Y10047D01*
X8188Y10050D01*
X8183Y10053D01*
X8178Y10055D01*
X8172Y10058D01*
X8165Y10061D01*
X8158Y10063D01*
X8151Y10065D01*
X8143Y10066D01*
X8135Y10067D01*
X8126Y10067D01*
X8121D01*
X8117Y10067D01*
X8113Y10066D01*
X8108Y10066D01*
X8102Y10065D01*
X8096Y10063D01*
X8083Y10060D01*
X8077Y10057D01*
X8070Y10054D01*
X8063Y10051D01*
X8057Y10046D01*
X8050Y10042D01*
X8044Y10036D01*
X8044Y10036D01*
X8043Y10035D01*
X8041Y10033D01*
X8040Y10031D01*
X8037Y10027D01*
X8035Y10024D01*
X8032Y10019D01*
X8029Y10014D01*
X8026Y10008D01*
X8023Y10002D01*
X8021Y9995D01*
X8019Y9987D01*
X8017Y9979D01*
X8015Y9970D01*
X8014Y9961D01*
X8014Y9951D01*
X7941Y9959D01*
Y9960D01*
X7941Y9962D01*
X7942Y9967D01*
X7943Y9972D01*
X7944Y9979D01*
X7946Y9987D01*
X7948Y9995D01*
X7950Y10005D01*
X7954Y10015D01*
X7957Y10025D01*
X7962Y10035D01*
X7967Y10045D01*
X7973Y10056D01*
X7980Y10065D01*
X7988Y10074D01*
X7996Y10083D01*
X7997Y10083D01*
X7999Y10085D01*
X8001Y10087D01*
X8005Y10089D01*
X8010Y10093D01*
X8016Y10096D01*
X8023Y10100D01*
X8031Y10104D01*
X8040Y10108D01*
X8050Y10112D01*
X8061Y10116D01*
X8072Y10119D01*
X8085Y10122D01*
X8098Y10124D01*
X8112Y10125D01*
X8127Y10126D01*
X8131D01*
X8135Y10125D01*
D02*
G37*
G36*
X9048D02*
X9053Y10125D01*
X9060Y10124D01*
X9068Y10123D01*
X9076Y10121D01*
X9084Y10119D01*
X9093Y10116D01*
X9103Y10113D01*
X9112Y10110D01*
X9121Y10105D01*
X9130Y10100D01*
X9139Y10094D01*
X9148Y10087D01*
X9148Y10087D01*
X9150Y10086D01*
X9152Y10083D01*
X9155Y10080D01*
X9158Y10076D01*
X9162Y10072D01*
X9166Y10066D01*
X9171Y10060D01*
X9175Y10053D01*
X9180Y10045D01*
X9184Y10036D01*
X9188Y10027D01*
X9192Y10017D01*
X9195Y10006D01*
X9198Y9994D01*
X9200Y9982D01*
X9130Y9977D01*
Y9977D01*
X9129Y9979D01*
X9129Y9981D01*
X9128Y9984D01*
X9127Y9987D01*
X9126Y9991D01*
X9123Y10000D01*
X9119Y10010D01*
X9114Y10020D01*
X9109Y10029D01*
X9106Y10033D01*
X9103Y10037D01*
X9102Y10038D01*
X9101Y10039D01*
X9100Y10040D01*
X9098Y10042D01*
X9095Y10044D01*
X9091Y10047D01*
X9087Y10050D01*
X9083Y10053D01*
X9073Y10058D01*
X9061Y10063D01*
X9054Y10065D01*
X9047Y10066D01*
X9039Y10067D01*
X9032Y10068D01*
X9028D01*
X9026Y10067D01*
X9023D01*
X9020Y10067D01*
X9012Y10065D01*
X9002Y10063D01*
X8992Y10060D01*
X8982Y10055D01*
X8972Y10049D01*
X8972Y10048D01*
X8971Y10048D01*
X8969Y10046D01*
X8967Y10044D01*
X8964Y10042D01*
X8961Y10039D01*
X8957Y10035D01*
X8953Y10031D01*
X8949Y10026D01*
X8945Y10021D01*
X8940Y10015D01*
X8936Y10008D01*
X8931Y10001D01*
X8927Y9994D01*
X8923Y9986D01*
X8919Y9977D01*
Y9977D01*
X8918Y9975D01*
X8918Y9972D01*
X8916Y9969D01*
X8915Y9964D01*
X8913Y9958D01*
X8911Y9951D01*
X8910Y9943D01*
X8908Y9934D01*
X8906Y9924D01*
X8905Y9913D01*
X8903Y9902D01*
X8902Y9889D01*
X8901Y9875D01*
X8900Y9860D01*
X8900Y9844D01*
X8900Y9845D01*
X8901Y9846D01*
X8902Y9848D01*
X8904Y9851D01*
X8907Y9854D01*
X8910Y9858D01*
X8917Y9866D01*
X8926Y9876D01*
X8937Y9885D01*
X8949Y9894D01*
X8962Y9902D01*
X8963D01*
X8964Y9903D01*
X8966Y9904D01*
X8969Y9905D01*
X8972Y9907D01*
X8976Y9908D01*
X8981Y9910D01*
X8986Y9912D01*
X8997Y9915D01*
X9011Y9918D01*
X9025Y9920D01*
X9040Y9921D01*
X9043D01*
X9047Y9921D01*
X9052Y9920D01*
X9058Y9920D01*
X9065Y9918D01*
X9073Y9917D01*
X9081Y9915D01*
X9090Y9912D01*
X9100Y9908D01*
X9110Y9904D01*
X9120Y9899D01*
X9131Y9893D01*
X9141Y9886D01*
X9151Y9878D01*
X9160Y9869D01*
X9161Y9868D01*
X9162Y9866D01*
X9165Y9863D01*
X9168Y9859D01*
X9172Y9854D01*
X9176Y9848D01*
X9181Y9841D01*
X9185Y9832D01*
X9190Y9823D01*
X9194Y9813D01*
X9199Y9802D01*
X9202Y9790D01*
X9206Y9777D01*
X9208Y9764D01*
X9210Y9749D01*
X9210Y9734D01*
Y9734D01*
Y9732D01*
Y9729D01*
X9210Y9725D01*
Y9720D01*
X9209Y9715D01*
X9208Y9708D01*
X9207Y9701D01*
X9206Y9694D01*
X9205Y9686D01*
X9200Y9669D01*
X9195Y9651D01*
X9191Y9643D01*
X9187Y9634D01*
X9186Y9633D01*
X9186Y9632D01*
X9184Y9629D01*
X9182Y9626D01*
X9180Y9622D01*
X9177Y9618D01*
X9170Y9607D01*
X9161Y9596D01*
X9150Y9584D01*
X9137Y9573D01*
X9130Y9567D01*
X9122Y9562D01*
X9122Y9562D01*
X9120Y9561D01*
X9118Y9560D01*
X9115Y9558D01*
X9111Y9557D01*
X9107Y9555D01*
X9101Y9552D01*
X9095Y9550D01*
X9089Y9548D01*
X9082Y9546D01*
X9074Y9543D01*
X9066Y9542D01*
X9048Y9539D01*
X9039Y9538D01*
X9029Y9538D01*
X9025D01*
X9021Y9538D01*
X9015Y9539D01*
X9007Y9540D01*
X8998Y9541D01*
X8989Y9543D01*
X8978Y9546D01*
X8967Y9549D01*
X8955Y9554D01*
X8943Y9559D01*
X8931Y9565D01*
X8919Y9573D01*
X8907Y9581D01*
X8896Y9591D01*
X8885Y9603D01*
X8884Y9604D01*
X8882Y9606D01*
X8880Y9610D01*
X8876Y9615D01*
X8872Y9622D01*
X8867Y9631D01*
X8862Y9642D01*
X8857Y9654D01*
X8852Y9668D01*
X8847Y9684D01*
X8842Y9701D01*
X8838Y9720D01*
X8834Y9742D01*
X8832Y9765D01*
X8830Y9790D01*
X8829Y9817D01*
Y9817D01*
Y9819D01*
Y9821D01*
Y9824D01*
X8830Y9828D01*
Y9833D01*
Y9838D01*
X8830Y9844D01*
X8831Y9851D01*
X8831Y9858D01*
X8832Y9865D01*
X8833Y9874D01*
X8834Y9891D01*
X8837Y9910D01*
X8840Y9929D01*
X8844Y9949D01*
X8849Y9970D01*
X8855Y9990D01*
X8862Y10009D01*
X8870Y10028D01*
X8880Y10045D01*
X8885Y10052D01*
X8891Y10060D01*
X8891Y10061D01*
X8893Y10063D01*
X8896Y10066D01*
X8901Y10070D01*
X8906Y10075D01*
X8913Y10081D01*
X8920Y10087D01*
X8929Y10093D01*
X8939Y10099D01*
X8950Y10105D01*
X8962Y10110D01*
X8975Y10115D01*
X8989Y10120D01*
X9004Y10123D01*
X9020Y10125D01*
X9036Y10126D01*
X9043D01*
X9048Y10125D01*
D02*
G37*
%LPC*%
G36*
X7677Y10068D02*
X7673D01*
X7670Y10067D01*
X7667Y10067D01*
X7663Y10066D01*
X7653Y10065D01*
X7643Y10061D01*
X7631Y10057D01*
X7626Y10054D01*
X7620Y10050D01*
X7615Y10046D01*
X7610Y10042D01*
X7609Y10041D01*
X7609Y10041D01*
X7607Y10039D01*
X7606Y10037D01*
X7604Y10035D01*
X7601Y10032D01*
X7597Y10024D01*
X7592Y10015D01*
X7587Y10005D01*
X7584Y9993D01*
X7584Y9986D01*
X7583Y9980D01*
Y9979D01*
Y9978D01*
Y9976D01*
X7584Y9973D01*
X7584Y9969D01*
X7585Y9965D01*
X7587Y9956D01*
X7590Y9945D01*
X7594Y9934D01*
X7597Y9929D01*
X7601Y9923D01*
X7605Y9918D01*
X7609Y9913D01*
X7610Y9912D01*
X7610Y9912D01*
X7612Y9910D01*
X7614Y9909D01*
X7617Y9907D01*
X7620Y9905D01*
X7623Y9902D01*
X7628Y9900D01*
X7637Y9895D01*
X7649Y9891D01*
X7663Y9888D01*
X7670Y9888D01*
X7678Y9887D01*
X7682D01*
X7685Y9888D01*
X7688Y9888D01*
X7692Y9889D01*
X7702Y9890D01*
X7712Y9893D01*
X7723Y9898D01*
X7729Y9901D01*
X7734Y9904D01*
X7740Y9908D01*
X7745Y9913D01*
X7745Y9913D01*
X7746Y9914D01*
X7747Y9915D01*
X7749Y9917D01*
X7751Y9920D01*
X7753Y9923D01*
X7758Y9930D01*
X7763Y9939D01*
X7767Y9950D01*
X7770Y9962D01*
X7770Y9969D01*
X7771Y9976D01*
Y9976D01*
Y9977D01*
Y9980D01*
X7770Y9982D01*
X7770Y9986D01*
X7769Y9990D01*
X7767Y9999D01*
X7764Y10009D01*
X7759Y10020D01*
X7756Y10025D01*
X7753Y10031D01*
X7749Y10036D01*
X7744Y10041D01*
X7743Y10042D01*
X7743Y10042D01*
X7741Y10044D01*
X7739Y10045D01*
X7736Y10047D01*
X7733Y10050D01*
X7730Y10052D01*
X7725Y10055D01*
X7716Y10059D01*
X7704Y10064D01*
X7691Y10067D01*
X7684Y10067D01*
X7677Y10068D01*
D02*
G37*
G36*
X7221Y10056D02*
X7056D01*
Y9850D01*
X7212D01*
X7217Y9850D01*
X7223Y9851D01*
X7230Y9851D01*
X7237Y9852D01*
X7246Y9853D01*
X7263Y9856D01*
X7280Y9861D01*
X7289Y9865D01*
X7296Y9868D01*
X7303Y9872D01*
X7310Y9877D01*
X7310Y9878D01*
X7311Y9879D01*
X7313Y9880D01*
X7315Y9882D01*
X7317Y9885D01*
X7320Y9889D01*
X7323Y9893D01*
X7326Y9897D01*
X7328Y9902D01*
X7331Y9908D01*
X7334Y9914D01*
X7336Y9921D01*
X7338Y9929D01*
X7340Y9937D01*
X7341Y9945D01*
X7341Y9954D01*
Y9955D01*
Y9956D01*
Y9958D01*
X7341Y9960D01*
Y9964D01*
X7340Y9967D01*
X7339Y9976D01*
X7337Y9985D01*
X7333Y9996D01*
X7329Y10006D01*
X7323Y10016D01*
Y10017D01*
X7322Y10017D01*
X7319Y10020D01*
X7315Y10025D01*
X7310Y10030D01*
X7303Y10036D01*
X7295Y10042D01*
X7285Y10047D01*
X7274Y10050D01*
X7273Y10051D01*
X7272D01*
X7270Y10051D01*
X7268Y10052D01*
X7266Y10052D01*
X7262Y10053D01*
X7258Y10053D01*
X7254Y10054D01*
X7249Y10054D01*
X7243D01*
X7236Y10055D01*
X7229Y10055D01*
X7221Y10056D01*
D02*
G37*
G36*
X8577Y9859D02*
X8573D01*
X8569Y9858D01*
X8565Y9858D01*
X8560Y9857D01*
X8555Y9856D01*
X8549Y9854D01*
X8543Y9853D01*
X8536Y9850D01*
X8530Y9848D01*
X8523Y9844D01*
X8516Y9840D01*
X8509Y9836D01*
X8502Y9830D01*
X8496Y9824D01*
X8495Y9824D01*
X8494Y9823D01*
X8493Y9821D01*
X8491Y9818D01*
X8488Y9815D01*
X8485Y9810D01*
X8482Y9806D01*
X8479Y9800D01*
X8476Y9794D01*
X8473Y9787D01*
X8470Y9780D01*
X8468Y9772D01*
X8466Y9763D01*
X8464Y9754D01*
X8463Y9744D01*
X8463Y9734D01*
Y9733D01*
Y9732D01*
Y9730D01*
X8463Y9728D01*
Y9724D01*
X8464Y9720D01*
X8464Y9716D01*
X8465Y9711D01*
X8467Y9701D01*
X8469Y9689D01*
X8473Y9676D01*
X8478Y9664D01*
Y9663D01*
X8479Y9662D01*
X8480Y9661D01*
X8481Y9658D01*
X8485Y9652D01*
X8489Y9645D01*
X8496Y9637D01*
X8503Y9628D01*
X8512Y9620D01*
X8521Y9613D01*
X8522D01*
X8523Y9612D01*
X8524Y9611D01*
X8526Y9610D01*
X8529Y9609D01*
X8532Y9607D01*
X8539Y9604D01*
X8548Y9601D01*
X8558Y9598D01*
X8568Y9596D01*
X8580Y9596D01*
X8582D01*
X8584Y9596D01*
X8587D01*
X8591Y9597D01*
X8596Y9598D01*
X8601Y9599D01*
X8606Y9600D01*
X8612Y9602D01*
X8618Y9605D01*
X8625Y9607D01*
X8631Y9611D01*
X8638Y9615D01*
X8644Y9620D01*
X8651Y9625D01*
X8657Y9632D01*
X8657Y9632D01*
X8658Y9633D01*
X8660Y9635D01*
X8662Y9638D01*
X8664Y9642D01*
X8667Y9646D01*
X8670Y9652D01*
X8673Y9658D01*
X8676Y9664D01*
X8679Y9672D01*
X8682Y9680D01*
X8684Y9688D01*
X8686Y9698D01*
X8688Y9708D01*
X8689Y9718D01*
X8689Y9730D01*
Y9730D01*
Y9732D01*
Y9736D01*
X8689Y9740D01*
X8688Y9745D01*
X8688Y9751D01*
X8687Y9757D01*
X8685Y9764D01*
X8681Y9779D01*
X8679Y9787D01*
X8676Y9795D01*
X8672Y9803D01*
X8668Y9810D01*
X8663Y9818D01*
X8657Y9824D01*
X8657Y9825D01*
X8656Y9826D01*
X8654Y9827D01*
X8652Y9830D01*
X8648Y9832D01*
X8645Y9835D01*
X8640Y9838D01*
X8635Y9842D01*
X8630Y9845D01*
X8624Y9848D01*
X8617Y9851D01*
X8610Y9853D01*
X8603Y9856D01*
X8595Y9857D01*
X8586Y9858D01*
X8577Y9859D01*
D02*
G37*
G36*
X7675Y9829D02*
X7670D01*
X7667Y9829D01*
X7663Y9828D01*
X7658Y9827D01*
X7652Y9826D01*
X7646Y9825D01*
X7633Y9821D01*
X7626Y9818D01*
X7619Y9815D01*
X7612Y9811D01*
X7606Y9807D01*
X7599Y9802D01*
X7593Y9796D01*
X7592Y9795D01*
X7591Y9794D01*
X7590Y9792D01*
X7588Y9790D01*
X7585Y9787D01*
X7582Y9783D01*
X7580Y9778D01*
X7577Y9773D01*
X7573Y9767D01*
X7571Y9761D01*
X7568Y9754D01*
X7565Y9747D01*
X7563Y9739D01*
X7562Y9731D01*
X7561Y9722D01*
X7560Y9713D01*
Y9713D01*
Y9712D01*
Y9710D01*
Y9708D01*
X7561Y9705D01*
X7561Y9702D01*
X7562Y9695D01*
X7564Y9686D01*
X7566Y9676D01*
X7570Y9665D01*
X7574Y9655D01*
Y9654D01*
X7575Y9654D01*
X7576Y9652D01*
X7577Y9650D01*
X7580Y9645D01*
X7585Y9639D01*
X7591Y9632D01*
X7598Y9625D01*
X7607Y9618D01*
X7617Y9611D01*
X7617D01*
X7618Y9611D01*
X7620Y9610D01*
X7622Y9609D01*
X7624Y9608D01*
X7627Y9606D01*
X7635Y9604D01*
X7644Y9601D01*
X7655Y9598D01*
X7666Y9596D01*
X7678Y9596D01*
X7683D01*
X7686Y9596D01*
X7690Y9597D01*
X7695Y9597D01*
X7701Y9598D01*
X7707Y9600D01*
X7720Y9604D01*
X7727Y9606D01*
X7734Y9609D01*
X7741Y9613D01*
X7748Y9618D01*
X7755Y9623D01*
X7761Y9628D01*
X7762Y9629D01*
X7763Y9630D01*
X7764Y9632D01*
X7766Y9634D01*
X7769Y9637D01*
X7772Y9641D01*
X7775Y9646D01*
X7778Y9651D01*
X7781Y9657D01*
X7784Y9663D01*
X7787Y9670D01*
X7789Y9677D01*
X7791Y9685D01*
X7793Y9693D01*
X7794Y9702D01*
X7794Y9711D01*
Y9712D01*
Y9714D01*
Y9716D01*
X7794Y9720D01*
X7793Y9724D01*
X7792Y9729D01*
X7791Y9735D01*
X7790Y9741D01*
X7786Y9754D01*
X7783Y9761D01*
X7780Y9768D01*
X7776Y9776D01*
X7771Y9783D01*
X7766Y9789D01*
X7760Y9796D01*
X7760Y9796D01*
X7759Y9797D01*
X7757Y9799D01*
X7754Y9801D01*
X7751Y9804D01*
X7747Y9806D01*
X7742Y9809D01*
X7737Y9813D01*
X7731Y9816D01*
X7725Y9819D01*
X7718Y9821D01*
X7710Y9824D01*
X7702Y9826D01*
X7694Y9828D01*
X7685Y9829D01*
X7675Y9829D01*
D02*
G37*
G36*
X7221Y9268D02*
X7056D01*
Y9062D01*
X7212D01*
X7217Y9063D01*
X7223Y9063D01*
X7230Y9064D01*
X7237Y9065D01*
X7246Y9066D01*
X7263Y9069D01*
X7280Y9074D01*
X7289Y9077D01*
X7296Y9081D01*
X7303Y9085D01*
X7310Y9090D01*
X7310Y9090D01*
X7311Y9091D01*
X7313Y9093D01*
X7315Y9095D01*
X7317Y9098D01*
X7320Y9101D01*
X7323Y9105D01*
X7326Y9110D01*
X7328Y9115D01*
X7331Y9121D01*
X7334Y9127D01*
X7336Y9134D01*
X7338Y9141D01*
X7340Y9149D01*
X7341Y9158D01*
X7341Y9167D01*
Y9167D01*
Y9168D01*
Y9170D01*
X7341Y9173D01*
Y9176D01*
X7340Y9180D01*
X7339Y9188D01*
X7337Y9198D01*
X7333Y9208D01*
X7329Y9219D01*
X7323Y9229D01*
Y9229D01*
X7322Y9230D01*
X7319Y9233D01*
X7315Y9237D01*
X7310Y9243D01*
X7303Y9248D01*
X7295Y9254D01*
X7285Y9259D01*
X7274Y9263D01*
X7273Y9263D01*
X7272D01*
X7270Y9264D01*
X7268Y9264D01*
X7266Y9265D01*
X7262Y9265D01*
X7258Y9266D01*
X7254Y9266D01*
X7249Y9267D01*
X7243D01*
X7236Y9267D01*
X7229Y9268D01*
X7221Y9268D01*
D02*
G37*
G36*
X9025Y9859D02*
X9021D01*
X9017Y9858D01*
X9013Y9858D01*
X9008Y9857D01*
X9003Y9856D01*
X8997Y9854D01*
X8991Y9853D01*
X8984Y9850D01*
X8978Y9848D01*
X8971Y9844D01*
X8964Y9840D01*
X8957Y9836D01*
X8950Y9830D01*
X8944Y9824D01*
X8943Y9824D01*
X8942Y9823D01*
X8941Y9821D01*
X8939Y9818D01*
X8936Y9815D01*
X8933Y9810D01*
X8930Y9806D01*
X8927Y9800D01*
X8924Y9794D01*
X8921Y9787D01*
X8918Y9780D01*
X8916Y9772D01*
X8914Y9763D01*
X8912Y9754D01*
X8911Y9744D01*
X8911Y9734D01*
Y9733D01*
Y9732D01*
Y9730D01*
X8911Y9728D01*
Y9724D01*
X8912Y9720D01*
X8912Y9716D01*
X8913Y9711D01*
X8915Y9701D01*
X8917Y9689D01*
X8921Y9676D01*
X8926Y9664D01*
Y9663D01*
X8927Y9662D01*
X8928Y9661D01*
X8929Y9658D01*
X8933Y9652D01*
X8937Y9645D01*
X8944Y9637D01*
X8951Y9628D01*
X8960Y9620D01*
X8969Y9613D01*
X8970D01*
X8971Y9612D01*
X8972Y9611D01*
X8974Y9610D01*
X8977Y9609D01*
X8980Y9607D01*
X8987Y9604D01*
X8996Y9601D01*
X9006Y9598D01*
X9016Y9596D01*
X9028Y9596D01*
X9030D01*
X9032Y9596D01*
X9035D01*
X9039Y9597D01*
X9044Y9598D01*
X9049Y9599D01*
X9054Y9600D01*
X9060Y9602D01*
X9066Y9605D01*
X9073Y9607D01*
X9079Y9611D01*
X9086Y9615D01*
X9092Y9620D01*
X9099Y9625D01*
X9105Y9632D01*
X9105Y9632D01*
X9106Y9633D01*
X9108Y9635D01*
X9110Y9638D01*
X9112Y9642D01*
X9115Y9646D01*
X9118Y9652D01*
X9121Y9658D01*
X9124Y9664D01*
X9127Y9672D01*
X9130Y9680D01*
X9132Y9688D01*
X9134Y9698D01*
X9136Y9708D01*
X9137Y9718D01*
X9137Y9730D01*
Y9730D01*
Y9732D01*
Y9736D01*
X9137Y9740D01*
X9136Y9745D01*
X9136Y9751D01*
X9135Y9757D01*
X9133Y9764D01*
X9129Y9779D01*
X9127Y9787D01*
X9124Y9795D01*
X9120Y9803D01*
X9116Y9810D01*
X9111Y9818D01*
X9105Y9824D01*
X9105Y9825D01*
X9104Y9826D01*
X9102Y9827D01*
X9100Y9830D01*
X9096Y9832D01*
X9093Y9835D01*
X9088Y9838D01*
X9083Y9842D01*
X9078Y9845D01*
X9072Y9848D01*
X9065Y9851D01*
X9058Y9853D01*
X9051Y9856D01*
X9043Y9857D01*
X9034Y9858D01*
X9025Y9859D01*
D02*
G37*
%LPD*%
D17*
X12408Y4421D02*
X14185D01*
X14195Y6272D02*
Y6418D01*
X14191Y6421D02*
X14195Y6418D01*
X12408Y6421D02*
X14191D01*
X14192Y5421D02*
Y6269D01*
X14195Y3438D02*
Y3659D01*
X14178Y3421D02*
X14195Y3438D01*
X12408Y3421D02*
X14178D01*
X14192Y3563D02*
Y5421D01*
X14187Y5417D02*
X14192Y5421D01*
X12408D02*
X14192D01*
X9397Y5906D02*
Y6394D01*
X10398Y5928D02*
Y6379D01*
X11399Y5913D02*
Y6402D01*
X9397Y1039D02*
Y5906D01*
X10398Y1062D02*
Y5928D01*
X11399Y1054D02*
Y5913D01*
X11585Y1043D02*
X12380D01*
X12408Y1071D02*
Y3421D01*
X8408Y1043D02*
X11585D01*
X8408D02*
X8415Y1049D01*
X8408Y1043D02*
Y3421D01*
X4724Y7972D02*
Y17421D01*
X11024D01*
Y15846D02*
Y17421D01*
Y7972D02*
Y15846D01*
X4724Y7972D02*
X11024D01*
X5906Y14272D02*
Y17028D01*
X6299D01*
Y15453D02*
Y17028D01*
Y15453D02*
X6693D01*
Y17028D01*
X7087D01*
Y15453D02*
Y17028D01*
Y15453D02*
X7480D01*
Y17028D01*
X7874D01*
Y15453D02*
Y17028D01*
Y15453D02*
X8268D01*
Y17028D01*
X10236D01*
X1152Y8144D02*
Y7934D01*
X1257Y7829D01*
X1362Y7934D01*
Y8144D01*
X1676Y8091D02*
X1624Y8144D01*
X1519D01*
X1467Y8091D01*
Y7881D01*
X1519Y7829D01*
X1624D01*
X1676Y7881D01*
X1991Y8091D02*
X1939Y8144D01*
X1834D01*
X1781Y8091D01*
Y7881D01*
X1834Y7829D01*
X1939D01*
X1991Y7881D01*
X522Y9095D02*
X469Y9147D01*
X365D01*
X312Y9095D01*
Y8885D01*
X365Y8833D01*
X469D01*
X522Y8885D01*
Y8990D01*
X417D01*
X627Y8833D02*
Y9147D01*
X784D01*
X837Y9095D01*
Y8990D01*
X784Y8938D01*
X627D01*
X942Y9147D02*
X1047D01*
X994D01*
Y8833D01*
X942D01*
X1047D01*
X1362Y9147D02*
X1257D01*
X1204Y9095D01*
Y8885D01*
X1257Y8833D01*
X1362D01*
X1414Y8885D01*
Y9095D01*
X1362Y9147D01*
X1519Y8833D02*
X1624D01*
X1571D01*
Y9147D01*
X1519Y9095D01*
X1781D02*
X1834Y9147D01*
X1939D01*
X1991Y9095D01*
Y9043D01*
X1939Y8990D01*
X1886D01*
X1939D01*
X1991Y8938D01*
Y8885D01*
X1939Y8833D01*
X1834D01*
X1781Y8885D01*
X522Y10099D02*
X469Y10151D01*
X365D01*
X312Y10099D01*
Y9889D01*
X365Y9836D01*
X469D01*
X522Y9889D01*
Y9994D01*
X417D01*
X627Y9836D02*
Y10151D01*
X784D01*
X837Y10099D01*
Y9994D01*
X784Y9941D01*
X627D01*
X942Y10151D02*
X1047D01*
X994D01*
Y9836D01*
X942D01*
X1047D01*
X1362Y10151D02*
X1257D01*
X1204Y10099D01*
Y9889D01*
X1257Y9836D01*
X1362D01*
X1414Y9889D01*
Y10099D01*
X1362Y10151D01*
X1519Y9836D02*
X1624D01*
X1571D01*
Y10151D01*
X1519Y10099D01*
X1991Y9836D02*
X1781D01*
X1991Y10046D01*
Y10099D01*
X1939Y10151D01*
X1834D01*
X1781Y10099D01*
X522Y11102D02*
X469Y11155D01*
X365D01*
X312Y11102D01*
Y10892D01*
X365Y10840D01*
X469D01*
X522Y10892D01*
Y10997D01*
X417D01*
X627Y10840D02*
Y11155D01*
X784D01*
X837Y11102D01*
Y10997D01*
X784Y10945D01*
X627D01*
X942Y11155D02*
X1047D01*
X994D01*
Y10840D01*
X942D01*
X1047D01*
X1362Y11155D02*
X1257D01*
X1204Y11102D01*
Y10892D01*
X1257Y10840D01*
X1362D01*
X1414Y10892D01*
Y11102D01*
X1362Y11155D01*
X1519Y10840D02*
X1624D01*
X1571D01*
Y11155D01*
X1519Y11102D01*
X1939Y10840D02*
Y11155D01*
X1781Y10997D01*
X1991D01*
X522Y12106D02*
X469Y12158D01*
X365D01*
X312Y12106D01*
Y11896D01*
X365Y11844D01*
X469D01*
X522Y11896D01*
Y12001D01*
X417D01*
X627Y11844D02*
Y12158D01*
X784D01*
X837Y12106D01*
Y12001D01*
X784Y11948D01*
X627D01*
X942Y12158D02*
X1047D01*
X994D01*
Y11844D01*
X942D01*
X1047D01*
X1362Y12158D02*
X1257D01*
X1204Y12106D01*
Y11896D01*
X1257Y11844D01*
X1362D01*
X1414Y11896D01*
Y12106D01*
X1362Y12158D01*
X1519Y11844D02*
X1624D01*
X1571D01*
Y12158D01*
X1519Y12106D01*
X1991Y12158D02*
X1886Y12106D01*
X1781Y12001D01*
Y11896D01*
X1834Y11844D01*
X1939D01*
X1991Y11896D01*
Y11948D01*
X1939Y12001D01*
X1781D01*
X732Y13162D02*
X679Y13215D01*
X574D01*
X522Y13162D01*
Y12952D01*
X574Y12900D01*
X679D01*
X732Y12952D01*
X837Y13215D02*
Y12900D01*
Y13057D01*
X1047D01*
Y13215D01*
Y12900D01*
X1152Y12847D02*
X1362D01*
X1467Y12900D02*
Y13215D01*
X1624D01*
X1676Y13162D01*
Y13057D01*
X1624Y13005D01*
X1467D01*
X1781Y13215D02*
Y12900D01*
X1939D01*
X1991Y12952D01*
Y13162D01*
X1939Y13215D01*
X1781D01*
X1152Y13851D02*
Y14061D01*
X1257Y14166D01*
X1362Y14061D01*
Y13851D01*
Y14008D01*
X1152D01*
X1467Y14166D02*
Y13851D01*
X1624D01*
X1676Y13903D01*
Y14113D01*
X1624Y14166D01*
X1467D01*
X1991Y14113D02*
X1939Y14166D01*
X1834D01*
X1781Y14113D01*
Y13903D01*
X1834Y13851D01*
X1939D01*
X1991Y13903D01*
X837Y14854D02*
Y15169D01*
X994D01*
X1047Y15117D01*
Y15012D01*
X994Y14959D01*
X837D01*
X942D02*
X1047Y14854D01*
X1362Y15169D02*
X1152D01*
Y14854D01*
X1362D01*
X1152Y15012D02*
X1257D01*
X1676Y15117D02*
X1624Y15169D01*
X1519D01*
X1467Y15117D01*
Y15064D01*
X1519Y15012D01*
X1624D01*
X1676Y14959D01*
Y14907D01*
X1624Y14854D01*
X1519D01*
X1467Y14907D01*
X1781Y15169D02*
X1991D01*
X1886D01*
Y14854D01*
X13708Y15137D02*
X13918D01*
X13813D01*
Y14822D01*
X14023Y15137D02*
X14233Y14822D01*
Y15137D02*
X14023Y14822D01*
X14338Y15137D02*
Y14822D01*
X14495D01*
X14548Y14874D01*
Y15084D01*
X14495Y15137D01*
X14338D01*
X13708Y13823D02*
Y14138D01*
X13866D01*
X13918Y14085D01*
Y13980D01*
X13866Y13928D01*
X13708D01*
X13813D02*
X13918Y13823D01*
X14023Y14138D02*
X14233Y13823D01*
Y14138D02*
X14023Y13823D01*
X14338Y14138D02*
Y13823D01*
X14495D01*
X14548Y13875D01*
Y14085D01*
X14495Y14138D01*
X14338D01*
X13918Y13086D02*
X13866Y13139D01*
X13761D01*
X13708Y13086D01*
Y12876D01*
X13761Y12824D01*
X13866D01*
X13918Y12876D01*
Y12981D01*
X13813D01*
X14023Y12824D02*
Y13139D01*
X14181D01*
X14233Y13086D01*
Y12981D01*
X14181Y12929D01*
X14023D01*
X14338Y13139D02*
X14443D01*
X14390D01*
Y12824D01*
X14338D01*
X14443D01*
X14758Y13139D02*
X14653D01*
X14600Y13086D01*
Y12876D01*
X14653Y12824D01*
X14758D01*
X14810Y12876D01*
Y13086D01*
X14758Y13139D01*
X15073Y12824D02*
Y13139D01*
X14915Y12981D01*
X15125D01*
X13918Y12087D02*
X13866Y12140D01*
X13761D01*
X13708Y12087D01*
Y11877D01*
X13761Y11825D01*
X13866D01*
X13918Y11877D01*
Y11982D01*
X13813D01*
X14023Y11825D02*
Y12140D01*
X14181D01*
X14233Y12087D01*
Y11982D01*
X14181Y11930D01*
X14023D01*
X14338Y12140D02*
X14443D01*
X14390D01*
Y11825D01*
X14338D01*
X14443D01*
X14758Y12140D02*
X14653D01*
X14600Y12087D01*
Y11877D01*
X14653Y11825D01*
X14758D01*
X14810Y11877D01*
Y12087D01*
X14758Y12140D01*
X15125D02*
X14915D01*
Y11982D01*
X15020Y12035D01*
X15073D01*
X15125Y11982D01*
Y11877D01*
X15073Y11825D01*
X14968D01*
X14915Y11877D01*
X13918Y11088D02*
X13866Y11141D01*
X13761D01*
X13708Y11088D01*
Y10878D01*
X13761Y10826D01*
X13866D01*
X13918Y10878D01*
Y10983D01*
X13813D01*
X14023Y10826D02*
Y11141D01*
X14181D01*
X14233Y11088D01*
Y10983D01*
X14181Y10931D01*
X14023D01*
X14338Y11141D02*
X14443D01*
X14390D01*
Y10826D01*
X14338D01*
X14443D01*
X14758Y11141D02*
X14653D01*
X14600Y11088D01*
Y10878D01*
X14653Y10826D01*
X14758D01*
X14810Y10878D01*
Y11088D01*
X14758Y11141D01*
X14915Y11088D02*
X14968Y11141D01*
X15073D01*
X15125Y11088D01*
Y10878D01*
X15073Y10826D01*
X14968D01*
X14915Y10878D01*
Y11088D01*
X13918Y10089D02*
X13866Y10142D01*
X13761D01*
X13708Y10089D01*
Y9879D01*
X13761Y9827D01*
X13866D01*
X13918Y9879D01*
Y9984D01*
X13813D01*
X14023Y9827D02*
Y10142D01*
X14181D01*
X14233Y10089D01*
Y9984D01*
X14181Y9932D01*
X14023D01*
X14338Y10142D02*
X14443D01*
X14390D01*
Y9827D01*
X14338D01*
X14443D01*
X14758Y10142D02*
X14653D01*
X14600Y10089D01*
Y9879D01*
X14653Y9827D01*
X14758D01*
X14810Y9879D01*
Y10089D01*
X14758Y10142D01*
X15125Y9827D02*
X14915D01*
X15125Y10037D01*
Y10089D01*
X15073Y10142D01*
X14968D01*
X14915Y10089D01*
X13918Y9090D02*
X13866Y9143D01*
X13761D01*
X13708Y9090D01*
Y8880D01*
X13761Y8828D01*
X13866D01*
X13918Y8880D01*
Y8985D01*
X13813D01*
X14023Y8828D02*
Y9143D01*
X14181D01*
X14233Y9090D01*
Y8985D01*
X14181Y8933D01*
X14023D01*
X14338Y9143D02*
X14443D01*
X14390D01*
Y8828D01*
X14338D01*
X14443D01*
X14758Y9143D02*
X14653D01*
X14600Y9090D01*
Y8880D01*
X14653Y8828D01*
X14758D01*
X14810Y8880D01*
Y9090D01*
X14758Y9143D01*
X14915Y8828D02*
X15020D01*
X14968D01*
Y9143D01*
X14915Y9090D01*
X15387Y9143D02*
X15178D01*
Y8985D01*
X15283Y9038D01*
X15335D01*
X15387Y8985D01*
Y8880D01*
X15335Y8828D01*
X15230D01*
X15178Y8880D01*
X13918Y8091D02*
X13866Y8144D01*
X13761D01*
X13708Y8091D01*
Y7881D01*
X13761Y7829D01*
X13866D01*
X13918Y7881D01*
Y7986D01*
X13813D01*
X14023Y7829D02*
Y8144D01*
X14233Y7829D01*
Y8144D01*
X14338D02*
Y7829D01*
X14495D01*
X14548Y7881D01*
Y8091D01*
X14495Y8144D01*
X14338D01*
X6037Y1855D02*
X5985Y1907D01*
X5880D01*
X5828Y1855D01*
Y1645D01*
X5880Y1592D01*
X5985D01*
X6037Y1645D01*
Y1750D01*
X5933D01*
X6142Y1592D02*
Y1907D01*
X6352Y1592D01*
Y1907D01*
X6457D02*
Y1592D01*
X6615D01*
X6667Y1645D01*
Y1855D01*
X6615Y1907D01*
X6457D01*
X4728Y1855D02*
X4780Y1907D01*
X4885D01*
X4937Y1855D01*
Y1802D01*
X4885Y1750D01*
X4833D01*
X4885D01*
X4937Y1697D01*
Y1645D01*
X4885Y1592D01*
X4780D01*
X4728Y1645D01*
X5042Y1802D02*
X5147Y1592D01*
X5252Y1802D01*
X5357Y1855D02*
X5410Y1907D01*
X5515D01*
X5567Y1855D01*
Y1802D01*
X5515Y1750D01*
X5462D01*
X5515D01*
X5567Y1697D01*
Y1645D01*
X5515Y1592D01*
X5410D01*
X5357Y1645D01*
X10270Y18426D02*
X10217Y18374D01*
Y18269D01*
X10270Y18217D01*
X10480D01*
X10532Y18269D01*
Y18374D01*
X10480Y18426D01*
X10375D01*
Y18321D01*
X10532Y18531D02*
X10217D01*
X10532Y18741D01*
X10217D01*
Y18846D02*
X10532D01*
Y19004D01*
X10480Y19056D01*
X10270D01*
X10217Y19004D01*
Y18846D01*
X5167Y18217D02*
X5482D01*
Y18374D01*
X5430Y18426D01*
X5220D01*
X5167Y18374D01*
Y18217D01*
Y18531D02*
Y18741D01*
Y18636D01*
X5482D01*
Y18846D02*
X5167D01*
Y19004D01*
X5220Y19056D01*
X5325D01*
X5377Y19004D01*
Y18846D01*
Y18951D02*
X5482Y19056D01*
X7549Y19066D02*
X7282D01*
Y18866D01*
X7416D01*
X7282D01*
Y18667D01*
X7682Y19066D02*
X7949D01*
X7815D01*
Y18667D01*
X8082Y19066D02*
Y18667D01*
X8282D01*
X8349Y18733D01*
Y19000D01*
X8282Y19066D01*
X8082D01*
X8482D02*
X8615D01*
X8549D01*
Y18667D01*
X8482D01*
X8615D01*
X4442Y5039D02*
X4232D01*
Y4882D01*
X4337D01*
X4232D01*
Y4724D01*
X4547Y5039D02*
X4757D01*
X4652D01*
Y4724D01*
X4862Y5039D02*
Y4724D01*
X5019D01*
X5072Y4777D01*
Y4987D01*
X5019Y5039D01*
X4862D01*
X5177D02*
X5282D01*
X5229D01*
Y4724D01*
X5177D01*
X5282D01*
X5754D02*
Y5039D01*
X5912D01*
X5964Y4987D01*
Y4882D01*
X5912Y4829D01*
X5754D01*
X6121Y4724D02*
X6226D01*
X6279Y4777D01*
Y4882D01*
X6226Y4934D01*
X6121D01*
X6069Y4882D01*
Y4777D01*
X6121Y4724D01*
X6384Y4934D02*
Y4777D01*
X6436Y4724D01*
X6489Y4777D01*
X6541Y4724D01*
X6594Y4777D01*
Y4934D01*
X6856Y4724D02*
X6751D01*
X6699Y4777D01*
Y4882D01*
X6751Y4934D01*
X6856D01*
X6909Y4882D01*
Y4829D01*
X6699D01*
X7014Y4934D02*
Y4724D01*
Y4829D01*
X7066Y4882D01*
X7118Y4934D01*
X7171D01*
X11831Y1593D02*
X11779Y1541D01*
Y1436D01*
X11831Y1383D01*
X12041D01*
X12094Y1436D01*
Y1541D01*
X12041Y1593D01*
X11936D01*
Y1488D01*
X12094Y1698D02*
X11779D01*
Y1855D01*
X11831Y1908D01*
X11936D01*
X11989Y1855D01*
Y1698D01*
X11779Y2013D02*
Y2118D01*
Y2065D01*
X12094D01*
Y2013D01*
Y2118D01*
X11779Y2433D02*
Y2328D01*
X11831Y2275D01*
X12041D01*
X12094Y2328D01*
Y2433D01*
X12041Y2485D01*
X11831D01*
X11779Y2433D01*
X12094Y2590D02*
Y2695D01*
Y2643D01*
X11779D01*
X11831Y2590D01*
X11779Y3062D02*
Y2852D01*
X11936D01*
X11884Y2957D01*
Y3010D01*
X11936Y3062D01*
X12041D01*
X12094Y3010D01*
Y2905D01*
X12041Y2852D01*
X10813Y1724D02*
X10760Y1672D01*
Y1567D01*
X10813Y1514D01*
X11023D01*
X11075Y1567D01*
Y1672D01*
X11023Y1724D01*
X10918D01*
Y1619D01*
X11075Y1829D02*
X10760D01*
Y1987D01*
X10813Y2039D01*
X10918D01*
X10970Y1987D01*
Y1829D01*
X10760Y2144D02*
Y2249D01*
Y2196D01*
X11075D01*
Y2144D01*
Y2249D01*
X10760Y2564D02*
Y2459D01*
X10813Y2406D01*
X11023D01*
X11075Y2459D01*
Y2564D01*
X11023Y2616D01*
X10813D01*
X10760Y2564D01*
X11075Y2931D02*
Y2721D01*
X10865Y2931D01*
X10813D01*
X10760Y2879D01*
Y2774D01*
X10813Y2721D01*
X9794Y1724D02*
X9742Y1672D01*
Y1567D01*
X9794Y1514D01*
X10004D01*
X10056Y1567D01*
Y1672D01*
X10004Y1724D01*
X9899D01*
Y1619D01*
X10056Y1829D02*
X9742D01*
Y1987D01*
X9794Y2039D01*
X9899D01*
X9952Y1987D01*
Y1829D01*
X9742Y2144D02*
Y2249D01*
Y2196D01*
X10056D01*
Y2144D01*
Y2249D01*
X9742Y2564D02*
Y2459D01*
X9794Y2406D01*
X10004D01*
X10056Y2459D01*
Y2564D01*
X10004Y2616D01*
X9794D01*
X9742Y2564D01*
X9794Y2721D02*
X9742Y2774D01*
Y2879D01*
X9794Y2931D01*
X10004D01*
X10056Y2879D01*
Y2774D01*
X10004Y2721D01*
X9794D01*
X8775Y1698D02*
X8723Y1645D01*
Y1541D01*
X8775Y1488D01*
X8985D01*
X9038Y1541D01*
Y1645D01*
X8985Y1698D01*
X8723Y1803D02*
X9038D01*
X8880D01*
Y2013D01*
X8723D01*
X9038D01*
X9090Y2118D02*
Y2328D01*
X9038Y2433D02*
X8723D01*
Y2590D01*
X8775Y2643D01*
X8880D01*
X8933Y2590D01*
Y2433D01*
X8723Y2747D02*
X9038D01*
Y2905D01*
X8985Y2957D01*
X8775D01*
X8723Y2905D01*
Y2747D01*
X12879Y6055D02*
Y5740D01*
X13089D01*
X13351Y6055D02*
X13246D01*
X13194Y6003D01*
Y5793D01*
X13246Y5740D01*
X13351D01*
X13404Y5793D01*
Y6003D01*
X13351Y6055D01*
X13509D02*
Y5740D01*
X13614Y5845D01*
X13719Y5740D01*
Y6055D01*
X12905Y4740D02*
Y5055D01*
X13063D01*
X13115Y5003D01*
Y4898D01*
X13063Y4845D01*
X12905D01*
X13220Y5055D02*
X13325D01*
X13273D01*
Y4740D01*
X13220D01*
X13325D01*
X13482D02*
Y5055D01*
X13692Y4740D01*
Y5055D01*
X12748Y4055D02*
Y3740D01*
Y3898D01*
X12958D01*
Y4055D01*
Y3740D01*
X13063Y4055D02*
X13168D01*
X13115D01*
Y3740D01*
X13063D01*
X13168D01*
X13535Y4003D02*
X13482Y4055D01*
X13378D01*
X13325Y4003D01*
Y3793D01*
X13378Y3740D01*
X13482D01*
X13535Y3793D01*
Y3898D01*
X13430D01*
X13640Y4055D02*
Y3740D01*
Y3898D01*
X13850D01*
Y4055D01*
Y3740D01*
D18*
X6678Y2359D02*
Y3359D01*
X4678Y2359D02*
X6678D01*
X4678D02*
Y3359D01*
X6678D01*
X4642Y5366D02*
Y6366D01*
X6642D01*
Y5366D02*
Y6366D01*
X4642Y5366D02*
X6642D01*
X10874Y19235D02*
Y20235D01*
X4874Y19235D02*
Y20235D01*
X10874D01*
X4874Y19235D02*
X10874D01*
X8408Y3421D02*
Y4421D01*
X12408D01*
X8408Y3421D02*
X12408D01*
Y4421D01*
X8408D02*
Y5421D01*
X12408D01*
X8408Y4421D02*
X12408D01*
Y5421D01*
X8408D02*
Y6421D01*
X12408D01*
X8408Y5421D02*
X12408D01*
Y6421D01*
X12492Y7492D02*
X13492D01*
X12492D02*
Y15492D01*
X13492D01*
Y7492D02*
Y15492D01*
X2157Y7492D02*
X3157D01*
X2157D02*
Y15492D01*
X3157D01*
Y7492D02*
Y15492D01*
M02*
