G04 Layer_Color=32896*
%FSLAX24Y24*%
%MOIN*%
G70*
G01*
G75*
%ADD17C,0.0100*%
D17*
X12156Y13330D02*
Y13680D01*
X11981D01*
X11923Y13621D01*
Y13505D01*
X11981Y13446D01*
X12156D01*
X11806Y13680D02*
Y13446D01*
Y13563D01*
X11748Y13621D01*
X11690Y13680D01*
X11631D01*
X11282Y13446D02*
X11398D01*
X11456Y13505D01*
Y13621D01*
X11398Y13680D01*
X11282D01*
X11223Y13621D01*
Y13563D01*
X11456D01*
X11048Y13738D02*
Y13680D01*
X11107D01*
X10990D01*
X11048D01*
Y13505D01*
X10990Y13446D01*
X10640D02*
X10757D01*
X10815Y13505D01*
Y13621D01*
X10757Y13680D01*
X10640D01*
X10582Y13621D01*
Y13563D01*
X10815D01*
X10465Y13446D02*
Y13680D01*
X10290D01*
X10232Y13621D01*
Y13446D01*
X9882Y13796D02*
Y13446D01*
X10057D01*
X10115Y13505D01*
Y13621D01*
X10057Y13680D01*
X9882D01*
X9707D02*
X9590D01*
X9532Y13621D01*
Y13446D01*
X9707D01*
X9765Y13505D01*
X9707Y13563D01*
X9532D01*
X9415Y13446D02*
Y13505D01*
X9357D01*
Y13446D01*
X9415D01*
X8891Y13680D02*
X9066D01*
X9124Y13621D01*
Y13505D01*
X9066Y13446D01*
X8891D01*
X8716D02*
X8599D01*
X8541Y13505D01*
Y13621D01*
X8599Y13680D01*
X8716D01*
X8774Y13621D01*
Y13505D01*
X8716Y13446D01*
X8424D02*
Y13680D01*
X8366D01*
X8307Y13621D01*
Y13446D01*
Y13621D01*
X8249Y13680D01*
X8191Y13621D01*
Y13446D01*
X8074D02*
X7841Y13680D01*
X7549Y13446D02*
X7666D01*
X7724Y13505D01*
Y13621D01*
X7666Y13680D01*
X7549D01*
X7491Y13621D01*
Y13563D01*
X7724D01*
X7374Y13446D02*
X7200D01*
X7141Y13505D01*
X7200Y13563D01*
X7316D01*
X7374Y13621D01*
X7316Y13680D01*
X7141D01*
X7025Y13330D02*
Y13680D01*
X6850D01*
X6791Y13621D01*
Y13505D01*
X6850Y13446D01*
X7025D01*
X6675D02*
X6558D01*
X6616D01*
Y13796D01*
X6675Y13738D01*
X6150Y13446D02*
X6383D01*
X6150Y13680D01*
Y13738D01*
X6208Y13796D01*
X6325D01*
X6383Y13738D01*
X6033Y13796D02*
Y13446D01*
X5858D01*
X5800Y13505D01*
Y13563D01*
Y13621D01*
X5858Y13680D01*
X6033D01*
X5683D02*
Y13446D01*
Y13563D01*
X5625Y13621D01*
X5567Y13680D01*
X5508D01*
X5159Y13446D02*
X5275D01*
X5333Y13505D01*
Y13621D01*
X5275Y13680D01*
X5159D01*
X5100Y13621D01*
Y13563D01*
X5333D01*
X4925Y13680D02*
X4809D01*
X4750Y13621D01*
Y13446D01*
X4925D01*
X4984Y13505D01*
X4925Y13563D01*
X4750D01*
X4634Y13446D02*
Y13796D01*
Y13563D02*
X4459Y13680D01*
X4634Y13563D02*
X4459Y13446D01*
X4225D02*
X4109D01*
X4051Y13505D01*
Y13621D01*
X4109Y13680D01*
X4225D01*
X4284Y13621D01*
Y13505D01*
X4225Y13446D01*
X3934Y13680D02*
Y13505D01*
X3876Y13446D01*
X3701D01*
Y13680D01*
X3526Y13738D02*
Y13680D01*
X3584D01*
X3467D01*
X3526D01*
Y13505D01*
X3467Y13446D01*
X11811Y14909D02*
X11644Y14576D01*
X11477Y14909D01*
X11311Y14576D02*
X11144D01*
X11227D01*
Y15076D01*
X11311Y14993D01*
X10894Y14576D02*
Y14659D01*
X10811D01*
Y14576D01*
X10894D01*
X10478Y14993D02*
X10394Y15076D01*
X10228D01*
X10144Y14993D01*
Y14659D01*
X10228Y14576D01*
X10394D01*
X10478Y14659D01*
Y14993D01*
X9478Y14826D02*
X9145D01*
X8145Y14576D02*
X8478D01*
X8145Y14909D01*
Y14993D01*
X8228Y15076D01*
X8395D01*
X8478Y14993D01*
X7978D02*
X7895Y15076D01*
X7729D01*
X7645Y14993D01*
Y14659D01*
X7729Y14576D01*
X7895D01*
X7978Y14659D01*
Y14993D01*
X7479Y14576D02*
X7312D01*
X7395D01*
Y15076D01*
X7479Y14993D01*
X6729Y15076D02*
X7062D01*
Y14826D01*
X6895Y14909D01*
X6812D01*
X6729Y14826D01*
Y14659D01*
X6812Y14576D01*
X6979D01*
X7062Y14659D01*
X6562Y14826D02*
X6229D01*
X6062Y14993D02*
X5979Y15076D01*
X5812D01*
X5729Y14993D01*
Y14659D01*
X5812Y14576D01*
X5979D01*
X6062Y14659D01*
Y14993D01*
X5563D02*
X5479Y15076D01*
X5313D01*
X5229Y14993D01*
Y14909D01*
X5313Y14826D01*
X5396D01*
X5313D01*
X5229Y14743D01*
Y14659D01*
X5313Y14576D01*
X5479D01*
X5563Y14659D01*
X5063Y14826D02*
X4729D01*
X4563Y14576D02*
X4396D01*
X4480D01*
Y15076D01*
X4563Y14993D01*
X3813Y15076D02*
X4146D01*
Y14826D01*
X3980Y14909D01*
X3896D01*
X3813Y14826D01*
Y14659D01*
X3896Y14576D01*
X4063D01*
X4146Y14659D01*
X13210Y16568D02*
Y15968D01*
X13510D01*
X13610Y16068D01*
Y16268D01*
X13510Y16368D01*
X13210D01*
X12710Y15968D02*
X12910D01*
X13010Y16068D01*
Y16268D01*
X12910Y16368D01*
X12710D01*
X12610Y16268D01*
Y16168D01*
X13010D01*
X12410Y15968D02*
X12110D01*
X12010Y16068D01*
X12110Y16168D01*
X12310D01*
X12410Y16268D01*
X12310Y16368D01*
X12010D01*
X11811Y15968D02*
X11611D01*
X11711D01*
Y16368D01*
X11811D01*
X11111Y15768D02*
X11011D01*
X10911Y15868D01*
Y16368D01*
X11211D01*
X11311Y16268D01*
Y16068D01*
X11211Y15968D01*
X10911D01*
X10711D02*
Y16368D01*
X10411D01*
X10311Y16268D01*
Y15968D01*
X9811D02*
X10011D01*
X10111Y16068D01*
Y16268D01*
X10011Y16368D01*
X9811D01*
X9711Y16268D01*
Y16168D01*
X10111D01*
X9111Y16568D02*
Y15968D01*
X9411D01*
X9511Y16068D01*
Y16268D01*
X9411Y16368D01*
X9111D01*
X8312Y16568D02*
Y15968D01*
X8012D01*
X7912Y16068D01*
Y16168D01*
Y16268D01*
X8012Y16368D01*
X8312D01*
X7712D02*
Y16068D01*
X7612Y15968D01*
X7312D01*
Y15868D01*
X7412Y15768D01*
X7512D01*
X7312Y15968D02*
Y16368D01*
X6512Y15768D02*
Y16368D01*
X6212D01*
X6112Y16268D01*
Y16068D01*
X6212Y15968D01*
X6512D01*
X5912Y16368D02*
Y15968D01*
Y16168D01*
X5812Y16268D01*
X5713Y16368D01*
X5613D01*
X5013Y15968D02*
X5213D01*
X5313Y16068D01*
Y16268D01*
X5213Y16368D01*
X5013D01*
X4913Y16268D01*
Y16168D01*
X5313D01*
X4613Y16468D02*
Y16368D01*
X4713D01*
X4513D01*
X4613D01*
Y16068D01*
X4513Y15968D01*
X3913D02*
X4113D01*
X4213Y16068D01*
Y16268D01*
X4113Y16368D01*
X3913D01*
X3813Y16268D01*
Y16168D01*
X4213D01*
X3613Y15968D02*
Y16368D01*
X3313D01*
X3213Y16268D01*
Y15968D01*
X2614Y16568D02*
Y15968D01*
X2913D01*
X3013Y16068D01*
Y16268D01*
X2913Y16368D01*
X2614D01*
X2314D02*
X2114D01*
X2014Y16268D01*
Y15968D01*
X2314D01*
X2414Y16068D01*
X2314Y16168D01*
X2014D01*
M02*
