M48
;Layer_Color=9474304
;FILE_FORMAT=2:4
INCH,LZ
;TYPE=PLATED
T1F00S00C0.0354
T2F00S00C0.1260
%
T01
X005178Y002859
X006178
X006142Y005866
X005142
X008908Y005921
Y004921
Y003921
X009908
X010908
X011908
Y004921
X010908
X009908
Y005921
X010908
X011908
X012992Y007992
Y008992
Y009992
Y010992
Y011992
Y012992
Y013992
Y014992
X010374Y019735
X009374
X008374
X007374
X006374
X005374
X002657Y014992
Y013992
Y012992
Y011992
Y010992
Y009992
Y008992
Y007992
T02
X001575Y001575
X014173Y001575
Y019291
X001575Y019291
M30
